<?xml version="1.0" encoding="UTF-8"?>
<svg version="1.1" xmlns="http://www.w3.org/2000/svg" width="199" height="175">
<path d="M0 0 C65.01 0 130.02 0 197 0 C197 57.09 197 114.18 197 173 C131.99 173 66.98 173 0 173 C0 115.91 0 58.82 0 0 Z " fill="#FDFDFD" transform="translate(1,2)"/>
<path d="M0 0 C6.45411315 2.19592607 11.60909974 7.44520111 16.640625 11.8984375 C17.51630127 12.65882324 17.51630127 12.65882324 18.40966797 13.43457031 C30.26016172 23.74721373 30.26016172 23.74721373 30.88672066 28.9367485 C30.88395528 30.02630781 30.88395528 30.02630781 30.88113403 31.13787842 C30.88388336 31.97637833 30.88663269 32.81487823 30.88946533 33.67878723 C30.8786795 35.04580025 30.8786795 35.04580025 30.86767578 36.44042969 C30.86796783 37.40661728 30.86825989 38.37280487 30.86856079 39.36827087 C30.86716785 42.56070955 30.85160818 45.75291461 30.8359375 48.9453125 C30.83220725 51.15919874 30.82936033 53.37308662 30.82736206 55.5869751 C30.8197266 61.41327474 30.80007876 67.23947463 30.7779541 73.06573486 C30.75749386 79.01125743 30.74835996 84.95679612 30.73828125 90.90234375 C30.71683287 102.56775215 30.68269788 114.23308653 30.640625 125.8984375 C29.02904427 125.93340781 27.4172459 125.95845348 25.80541992 125.97924805 C24.90788498 125.9942485 24.01035004 126.00924896 23.08561707 126.02470398 C19.81510139 125.85580507 18.34264112 124.91839525 15.953125 122.7109375 C15.1384375 121.9890625 14.32375 121.2671875 13.484375 120.5234375 C12.5459375 119.6571875 11.6075 118.7909375 10.640625 117.8984375 C8.74749858 116.23265159 6.84321333 114.58037625 4.9362793 112.93041992 C3.64597977 111.81167321 2.36068727 110.68711653 1.08129883 109.5559082 C-1.95039587 106.89036608 -4.98603474 104.41471791 -8.31640625 102.12890625 C-9.82267578 101.02482422 -9.82267578 101.02482422 -11.359375 99.8984375 C-11.359375 99.2384375 -11.359375 98.5784375 -11.359375 97.8984375 C-12.349375 97.5684375 -13.339375 97.2384375 -14.359375 96.8984375 C-12.71384091 95.20450535 -11.05518108 93.54111127 -9.359375 91.8984375 C-8.85535156 91.40988281 -8.35132813 90.92132813 -7.83203125 90.41796875 C-6.296875 89.0234375 -6.296875 89.0234375 -3.359375 86.8984375 C0.46945357 87.15476075 2.82525537 89.40342722 5.703125 91.7734375 C6.56035156 92.47210938 7.41757813 93.17078125 8.30078125 93.890625 C10.17541995 95.49924652 11.91024249 97.14152974 13.640625 98.8984375 C13.76524161 90.4479758 13.82978247 82.00002272 13.81940746 73.54875278 C13.81643868 69.6234556 13.83350669 65.70045363 13.89770508 61.77563477 C13.95900564 57.98154954 13.96592288 54.19077246 13.93645668 50.39634514 C13.93456524 48.95510515 13.95168214 47.51370077 13.98885155 46.07293892 C14.20854641 37.41929819 14.20854641 37.41929819 10.17544556 29.9838562 C6.84415656 27.22114726 3.51421059 24.8352303 -0.359375 22.8984375 C-0.359375 22.2384375 -0.359375 21.5784375 -0.359375 20.8984375 C-5.17392954 23.49227876 -9.26989826 26.31732322 -13.359375 29.9609375 C-18.2685468 34.22187963 -23.31222383 38.2313882 -28.546875 42.0859375 C-29.19462891 42.56748291 -29.84238281 43.04902832 -30.50976562 43.54516602 C-35.11092306 46.8984375 -35.11092306 46.8984375 -37.359375 46.8984375 C-37.359375 47.5584375 -37.359375 48.2184375 -37.359375 48.8984375 C-38.63933195 49.84018259 -39.95933604 50.72793799 -41.296875 51.5859375 C-44.56521714 53.95027011 -45.2560309 54.57752687 -46.546875 58.5859375 C-46.66613536 61.85579688 -46.66613536 61.85579688 -44.921875 63.8359375 C-44.1484375 64.361875 -44.1484375 64.361875 -43.359375 64.8984375 C-43.33875 64.0115625 -43.318125 63.1246875 -43.296875 62.2109375 C-42.13735768 58.11397631 -40.60672707 57.06738354 -37.24609375 54.68359375 C-34.85293189 53.68768167 -33.75807924 54.0230341 -31.359375 54.8984375 C-30.369375 55.3934375 -30.369375 55.3934375 -29.359375 55.8984375 C-29.359375 56.5584375 -29.359375 57.2184375 -29.359375 57.8984375 C-30.31650391 58.09759766 -30.31650391 58.09759766 -31.29296875 58.30078125 C-32.11925781 58.47738281 -32.94554688 58.65398437 -33.796875 58.8359375 C-34.62058594 59.00996094 -35.44429687 59.18398437 -36.29296875 59.36328125 C-38.33598704 59.70596744 -38.33598704 59.70596744 -39.359375 60.8984375 C-39.49505819 64.56188361 -39.52398926 67.40459471 -38.359375 70.8984375 C-36.379375 70.8984375 -34.399375 70.8984375 -32.359375 70.8984375 C-34.42912401 75.72084764 -37.77106527 78.45855592 -42.359375 80.8984375 C-49.11299457 81.13132093 -53.16503606 77.83762075 -58.046875 73.5234375 C-62.87152542 68.0468073 -63.80490599 63.72371308 -63.58203125 56.58203125 C-63.06741423 50.37954191 -61.43662676 46.5235922 -57.359375 41.8984375 C-55.71744651 40.58915255 -54.02598073 39.34022172 -52.296875 38.1484375 C-48.29533258 35.32068086 -44.44749538 32.39700087 -40.671875 29.2734375 C-37.41417993 26.5804718 -34.15061536 23.90875276 -30.796875 21.3359375 C-30.17683594 20.86027344 -29.55679688 20.38460937 -28.91796875 19.89453125 C-27.359375 18.8984375 -27.359375 18.8984375 -25.359375 18.8984375 C-24.864375 17.4134375 -24.864375 17.4134375 -24.359375 15.8984375 C-21.74321449 13.52216714 -18.97792831 11.38368831 -16.203125 9.1953125 C-13.89572042 7.33163957 -11.83554772 5.41728783 -9.734375 3.3359375 C-6.61463937 0.75206235 -4.08299378 -0.29164241 0 0 Z " fill="#1AC1FC" transform="translate(131.359375,22.1015625)"/>
<path d="M0 0 C2.2308819 -0.09833815 4.46302188 -0.16839859 6.6953125 -0.2265625 C7.93812988 -0.26861816 9.18094727 -0.31067383 10.46142578 -0.35400391 C16.40204098 0.24030353 19.09150186 3.84488534 23 8 C25.14766866 9.6603825 27.34079795 11.22028395 29.56640625 12.7734375 C30.03949219 13.17820312 30.51257813 13.58296875 31 14 C31 14.66 31 15.32 31 16 C31.84304687 16.38285156 31.84304687 16.38285156 32.703125 16.7734375 C35.29386482 18.15692781 37.45107845 19.79938583 39.75 21.625 C40.54921875 22.25664063 41.3484375 22.88828125 42.171875 23.5390625 C42.77515625 24.02117188 43.3784375 24.50328125 44 25 C43.47671952 28.93332492 41.81069239 30.40549853 38.75 32.8125 C37.98171875 33.43769531 37.2134375 34.06289063 36.421875 34.70703125 C34 36 34 36 31.52734375 35.98046875 C28.26966877 34.71667212 26.3326484 32.90958213 23.8125 30.5 C20.6654128 27.38154906 20.6654128 27.38154906 17 25 C16.94519786 33.59803495 16.93375111 42.19459931 16.97665405 50.79264832 C16.99523843 54.78582066 16.99925562 58.77786986 16.96923828 62.77099609 C16.94078066 66.62958119 16.95155956 70.48629711 16.98880005 74.3447876 C16.99620913 75.8118655 16.98981459 77.27908429 16.96896362 78.74603271 C16.72946226 87.06231376 16.72946226 87.06231376 19.70703125 94.62841797 C21.70471247 96.66733147 23.67836003 98.34572384 26 100 C26.69475433 100.57425217 27.38950867 101.14850433 28.10531616 101.74015808 C29.04318466 102.36377983 29.04318466 102.36377983 30 103 C33.63082455 102.10061819 36.13938819 100.31178507 38.9609375 97.91796875 C39.68023437 97.31533203 40.39953125 96.71269531 41.140625 96.09179688 C42.24664062 95.14916992 42.24664062 95.14916992 43.375 94.1875 C51.69917609 87.15018859 51.69917609 87.15018859 55.8515625 84.23828125 C58.22985985 82.54750658 59.99794827 81.0488095 62 79 C65.66666667 76 65.66666667 76 68 76 C68.495 74.515 68.495 74.515 69 73 C69.845625 72.29875 70.69125 71.5975 71.5625 70.875 C74.50570467 67.40352783 74.74618898 65.58098791 74.48828125 61.15234375 C73.68601103 57.61593661 71.85797645 56.0958494 69 54 C66.33466965 52.680982 66.33466965 52.680982 64 52 C64.0625 50.25 64.0625 50.25 65 48 C70.77311506 43.89220659 70.77311506 43.89220659 74.4453125 44.21484375 C77.24058651 45.07394173 79.22272286 46.21569517 81.625 47.875 C82.38039063 48.38804688 83.13578125 48.90109375 83.9140625 49.4296875 C85.81839915 50.86328925 87.48649024 52.1587238 89 54 C89 54.99 89 55.98 89 57 C89.66 57 90.32 57 91 57 C92.95309691 62.85929072 93.03687216 69.57359328 90.4375 75.25 C86.0997123 82.62871104 79.23551509 87.50075932 72.56396484 92.64697266 C67.59473941 96.48580825 62.80554147 100.50436667 58.08740234 104.64746094 C54.21294786 108 54.21294786 108 52 108 C52 108.66 52 109.32 52 110 C50.53190495 111.31153763 48.99804216 112.54994075 47.4375 113.75 C44.24961005 116.20360069 41.29255765 118.67187686 38.4375 121.5 C35.10606701 124.32936459 32.60427112 124.56355011 28.32495117 124.43652344 C24.23478071 123.66856956 21.8380247 121.21466287 18.9375 118.375 C17.73238667 117.26094256 16.52536937 116.148941 15.31640625 115.0390625 C14.46199951 114.24097168 14.46199951 114.24097168 13.59033203 113.42675781 C11.63779689 111.67505143 9.55324311 110.20759072 7.375 108.75 C2.93253206 105.47343943 0.49428481 101.18541453 -0.35578156 95.70716858 C-0.48922452 93.16091591 -0.49540718 90.64511027 -0.45410156 88.09570312 C-0.45468567 87.138685 -0.45526978 86.18166687 -0.45587158 85.19564819 C-0.45310235 82.05713633 -0.42206504 78.91959434 -0.390625 75.78125 C-0.38315849 73.59550495 -0.3774675 71.40975318 -0.37347412 69.22399902 C-0.35825019 63.48967797 -0.31899604 57.75576644 -0.2746582 52.02160645 C-0.23363567 46.16289814 -0.21544819 40.30412324 -0.1953125 34.4453125 C-0.15249887 22.9633624 -0.08428665 11.48171534 0 0 Z " fill="#8A62F9" transform="translate(36,24)"/>
<path d="M0 0 C0.33 0.66 0.66 1.32 1 2 C3.33317216 2.77772405 5.61435923 3.42415568 8 4 C8.33 5.32 8.66 6.64 9 8 C9.99 8 10.98 8 12 8 C14.4328783 12.73708209 14.26993658 17.09743708 14.22705078 22.28833008 C14.22734283 23.21564941 14.22763489 24.14296875 14.22793579 25.09838867 C14.22654535 28.15553224 14.21099749 31.21243039 14.1953125 34.26953125 C14.19158136 36.3923072 14.18873486 38.51508487 14.18673706 40.63786316 C14.1791086 46.21919528 14.15946679 51.80042295 14.1373291 57.38171387 C14.11685376 63.07933133 14.10773173 68.77696571 14.09765625 74.47460938 C14.07622023 85.64978542 14.04209371 96.82488402 14 108 C10.7 108 7.4 108 4 108 C3.67 106.68 3.34 105.36 3 104 C2.30519531 103.94457031 1.61039063 103.88914062 0.89453125 103.83203125 C-3.00041887 102.7124302 -5.42536747 100.39922958 -8.3125 97.6875 C-8.86228516 97.20087891 -9.41207031 96.71425781 -9.97851562 96.21289062 C-11.55078125 94.76171875 -11.55078125 94.76171875 -14 92 C-14 90.68 -14 89.36 -14 88 C-10.535 87.505 -10.535 87.505 -7 87 C-7 86.34 -7 85.68 -7 85 C-3.25 83.875 -3.25 83.875 -1 85 C-0.67 62.56 -0.34 40.12 0 17 C-0.66 17 -1.32 17 -2 17 C-2.33 14.69 -2.66 12.38 -3 10 C-4.32 10 -5.64 10 -7 10 C-5.33248852 6.05860922 -2.77289351 3.2107188 0 0 Z " fill="#08C9FA" transform="translate(147,38)"/>
<path d="M0 0 C2.3515625 1.3046875 2.3515625 1.3046875 4.625 2.875 C5.38039062 3.38804688 6.13578125 3.90109375 6.9140625 4.4296875 C8.81839915 5.86328925 10.48649024 7.1587238 12 9 C12 9.99 12 10.98 12 12 C12.66 12 13.32 12 14 12 C15.95309691 17.85929072 16.03687216 24.57359328 13.4375 30.25 C9.0997123 37.62871104 2.23551509 42.50075932 -4.43603516 47.64697266 C-9.40526059 51.48580825 -14.19445853 55.50436667 -18.91259766 59.64746094 C-22.78705214 63 -22.78705214 63 -25 63 C-25 63.66 -25 64.32 -25 65 C-26.98 65.99 -26.98 65.99 -29 67 C-28.67 65.35 -28.34 63.7 -28 62 C-28.66 62 -29.32 62 -30 62 C-32.1875 59.8125 -32.1875 59.8125 -34 57 C-33.75 54.1875 -33.75 54.1875 -33 52 C-31.02 51.34 -29.04 50.68 -27 50 C-26.67 48.35 -26.34 46.7 -26 45 C-24.515 44.505 -24.515 44.505 -23 44 C-22.67 43.34 -22.34 42.68 -22 42 C-21.01 42 -20.02 42 -19 42 C-18.896875 41.236875 -18.79375 40.47375 -18.6875 39.6875 C-17.92991884 36.72604639 -17.32284152 35.89268569 -15 34 C-14.319375 33.443125 -13.63875 32.88625 -12.9375 32.3125 C-11 31 -11 31 -9 31 C-8.67 30.01 -8.34 29.02 -8 28 C-7.154375 27.29875 -6.30875 26.5975 -5.4375 25.875 C-2.49429533 22.40352783 -2.25381102 20.58098791 -2.51171875 16.15234375 C-3.31398897 12.61593661 -5.14202355 11.0958494 -8 9 C-10.66533035 7.680982 -10.66533035 7.680982 -13 7 C-12.9375 5.25 -12.9375 5.25 -12 3 C-7.52011967 -0.18760716 -5.43051445 -1.66901132 0 0 Z " fill="#489FF9" transform="translate(113,69)"/>
<path d="M0 0 C0.66 0.33 1.32 0.66 2 1 C1.38125 1.20625 0.7625 1.4125 0.125 1.625 C-2.88413061 3.57208451 -3.11614811 5.60056966 -4 9 C-4.309375 10.175625 -4.309375 10.175625 -4.625 11.375 C-4.74875 11.91125 -4.8725 12.4475 -5 13 C-2.525 13.495 -2.525 13.495 0 14 C-0.7734375 14.61875 -0.7734375 14.61875 -1.5625 15.25 C-3.2588526 16.89874647 -3.2588526 16.89874647 -2.8125 19.125 C-2.1564434 21.18964132 -2.1564434 21.18964132 0 22 C-1.28716647 23.00578589 -2.57988658 24.00446798 -3.875 25 C-4.59429687 25.556875 -5.31359375 26.11375 -6.0546875 26.6875 C-8 28 -8 28 -10 28 C-10 28.66 -10 29.32 -10 30 C-11.27995695 30.94174509 -12.59996104 31.82950049 -13.9375 32.6875 C-17.20584214 35.05183261 -17.8966559 35.67908937 -19.1875 39.6875 C-19.30676036 42.95735938 -19.30676036 42.95735938 -17.5625 44.9375 C-16.7890625 45.4634375 -16.7890625 45.4634375 -16 46 C-15.979375 45.113125 -15.95875 44.22625 -15.9375 43.3125 C-14.77798268 39.21553881 -13.24735207 38.16894604 -9.88671875 35.78515625 C-7.49355689 34.78924417 -6.39870424 35.1245966 -4 36 C-3.01 36.495 -3.01 36.495 -2 37 C-2 37.66 -2 38.32 -2 39 C-2.95712891 39.19916016 -2.95712891 39.19916016 -3.93359375 39.40234375 C-4.75988281 39.57894531 -5.58617188 39.75554687 -6.4375 39.9375 C-7.26121094 40.11152344 -8.08492187 40.28554687 -8.93359375 40.46484375 C-10.97661204 40.80752994 -10.97661204 40.80752994 -12 42 C-12.13568319 45.66344611 -12.16461426 48.50615721 -11 52 C-9.02 52 -7.04 52 -5 52 C-7.06974901 56.82241014 -10.41169027 59.56011842 -15 62 C-21.75361957 62.23288343 -25.80566106 58.93918325 -30.6875 54.625 C-35.51215042 49.1483698 -36.44553099 44.82527558 -36.22265625 37.68359375 C-35.70803923 31.48110441 -34.07725176 27.6251547 -30 23 C-28.35807151 21.69071505 -26.66660573 20.44178422 -24.9375 19.25 C-19.97052462 15.74000406 -15.27446235 12.00151189 -10.59375 8.12109375 C-7.1446661 5.30053267 -3.59695482 2.6281475 0 0 Z " fill="#6F84FA" transform="translate(104,41)"/>
<path d="M0 0 C7.46175751 2.58165917 15.33782814 9.37203915 19.67578125 15.92578125 C13.85371949 15.42674739 11.37546606 11.89960877 7.73828125 7.67578125 C5.1207846 5.454875 3.044287 5.23200905 -0.32421875 4.92578125 C-0.32421875 3.93578125 -0.32421875 2.94578125 -0.32421875 1.92578125 C-1.97421875 1.92578125 -3.62421875 1.92578125 -5.32421875 1.92578125 C-5.65421875 3.24578125 -5.98421875 4.56578125 -6.32421875 5.92578125 C-7.64421875 5.92578125 -8.96421875 5.92578125 -10.32421875 5.92578125 C-10.65421875 7.24578125 -10.98421875 8.56578125 -11.32421875 9.92578125 C-11.98421875 9.92578125 -12.64421875 9.92578125 -13.32421875 9.92578125 C-13.32421875 11.24578125 -13.32421875 12.56578125 -13.32421875 13.92578125 C-11.87015625 14.60640625 -11.87015625 14.60640625 -10.38671875 15.30078125 C-7.32421875 16.92578125 -7.32421875 16.92578125 -6.32421875 18.92578125 C-4.00265278 19.33307353 -1.66734005 19.67016802 0.67578125 19.92578125 C1.17078125 21.41078125 1.17078125 21.41078125 1.67578125 22.92578125 C1.01578125 22.92578125 0.35578125 22.92578125 -0.32421875 22.92578125 C-0.32421875 22.26578125 -0.32421875 21.60578125 -0.32421875 20.92578125 C-5.38549531 23.63877905 -9.59584643 26.6266253 -13.88671875 30.42578125 C-24.98283968 40.17973665 -24.98283968 40.17973665 -31.32421875 40.92578125 C-31.69344952 36.3719351 -31.69344952 36.3719351 -29.82421875 34.11328125 C-29.08171875 33.52546875 -29.08171875 33.52546875 -28.32421875 32.92578125 C-29.97421875 32.92578125 -31.62421875 32.92578125 -33.32421875 32.92578125 C-32.71626895 28.79172263 -31.41459428 25.5437389 -29.32421875 21.92578125 C-28.33421875 21.26578125 -27.34421875 20.60578125 -26.32421875 19.92578125 C-26.03933594 19.31476562 -25.75445312 18.70375 -25.4609375 18.07421875 C-23.89624291 15.11689221 -21.75786975 13.61154824 -19.13671875 11.55078125 C-15.81955921 8.94105235 -12.69513235 6.33099801 -9.69921875 3.36328125 C-6.59305858 0.79064977 -4.06454244 -0.24569773 0 0 Z " fill="#4C9DFA" transform="translate(131.32421875,22.07421875)"/>
<path d="M0 0 C1.70632228 0.93072125 3.36165371 1.95424705 5 3 C5.59204727 3.31925446 6.18409454 3.63850891 6.79408264 3.96743774 C9.07465973 5.46262321 10.45212559 6.73646134 12 9 C12.99435461 14.00393505 12.81591709 18.95185097 12.68359375 24.0234375 C12.67052516 25.49457436 12.66056694 26.96574185 12.65357971 28.43692017 C12.62695145 32.29450758 12.55828047 36.15022689 12.48065186 40.00708008 C12.40882576 43.94847341 12.3770273 47.890171 12.34179688 51.83203125 C12.26689905 59.55553585 12.14755537 67.27750541 12 75 C8.24492176 73.74830725 6.75941479 71.82358723 4 69 C2.05996649 67.10996736 0.21615736 65.60317767 -2 64 C-5.68512689 64.2822975 -7.94632041 66.29481798 -10.75 68.5625 C-11.54921875 69.20316406 -12.3484375 69.84382813 -13.171875 70.50390625 C-14.07679687 71.24447266 -14.07679687 71.24447266 -15 72 C-14.278125 72.721875 -13.55625 73.44375 -12.8125 74.1875 C-8.90625 78.09375 -8.90625 78.09375 -5 82 C-13.14634146 79.96341463 -13.14634146 79.96341463 -16 77 C-16.75 74.3125 -16.75 74.3125 -17 72 C-18.98 71.67 -20.96 71.34 -23 71 C-23.04125 71.7425 -23.0825 72.485 -23.125 73.25 C-24.39065762 77.22778111 -26.35206934 78.1084804 -30 80 C-33.875 80.75 -33.875 80.75 -37 81 C-33.24305293 77.13692448 -29.29836595 73.60591226 -25.1875 70.125 C-24.26155029 69.33174316 -24.26155029 69.33174316 -23.31689453 68.52246094 C-20.7183349 66.2970733 -18.11378405 64.09165453 -15.44921875 61.9453125 C-10.9454236 58.26424452 -7.50343931 54.75354659 -6 49 C-5.70286526 44.97382425 -5.75834429 41.02759516 -6 37 C-5.34 37 -4.68 37 -4 37 C-3.94583259 39.72943537 -3.90624775 42.45778564 -3.875 45.1875 C-3.85824219 45.95642578 -3.84148437 46.72535156 -3.82421875 47.51757812 C-3.78733149 51.8149434 -4.0041496 55.07901831 -6 59 C-5.01 59 -4.02 59 -3 59 C-2.505 58.01 -2.505 58.01 -2 57 C-1.608125 57.474375 -1.21625 57.94875 -0.8125 58.4375 C1.40808374 60.35179633 3.13375709 60.61266988 6 61 C6 61.66 6 62.32 6 63 C5.01 63.33 4.02 63.66 3 64 C3.66 64.61875 4.32 65.2375 5 65.875 C7 68 7 68 7 70 C7.66 70 8.32 70 9 70 C9.33 49.87 9.66 29.74 10 9 C8.68 8.67 7.36 8.34 6 8 C6 7.34 6 6.68 6 6 C4.68 5.67 3.36 5.34 2 5 C2 4.01 2 3.02 2 2 C1.34 2 0.68 2 0 2 C0 1.34 0 0.68 0 0 Z " fill="#EAF9FC" transform="translate(133,46)"/>
<path d="M0 0 C1.65 0 3.3 0 5 0 C5 0.99 5 1.98 5 3 C5.88945312 2.92007812 6.77890625 2.84015625 7.6953125 2.7578125 C11.74445863 3.05455843 12.96456464 4.12135577 15.875 6.875 C16.65617187 7.59429688 17.43734375 8.31359375 18.2421875 9.0546875 C20 11 20 11 20 13 C20.825 13.020625 21.65 13.04125 22.5 13.0625 C27.32469882 14.35483004 30.92985285 17.04153616 34 21 C34.2265625 23.734375 34.2265625 23.734375 34 26 C33.505 24.02 33.505 24.02 33 22 C32.01 22 31.02 22 30 22 C29.505 20.515 29.505 20.515 29 19 C27.35 19 25.7 19 24 19 C24 18.34 24 17.68 24 17 C23.01 16.34 22.02 15.68 21 15 C19.02 17.64 17.04 20.28 15 23 C15.99 23.33 16.98 23.66 18 24 C18.33 26.31 18.66 28.62 19 31 C7.95462581 24.97525044 7.95462581 24.97525044 6.296875 19.80859375 C6.14992187 18.91333984 6.14992187 18.91333984 6 18 C3.69 18 1.38 18 -1 18 C-1.33 17.01 -1.66 16.02 -2 15 C-3.32488113 14.63451555 -4.66018514 14.3062434 -6 14 C-8.25 12.4375 -8.25 12.4375 -10 11 C-9.360625 10.401875 -8.72125 9.80375 -8.0625 9.1875 C-5.79689611 7.09189663 -5.79689611 7.09189663 -5 4 C-3.66666667 3.66666667 -2.33333333 3.33333333 -1 3 C-0.67 2.01 -0.34 1.02 0 0 Z " fill="#29AEF9" transform="translate(126,24)"/>
<path d="M0 0 C1.875 0.875 1.875 0.875 3.875 2.875 C3.875 3.865 3.875 4.855 3.875 5.875 C4.535 5.875 5.195 5.875 5.875 5.875 C7.82809691 11.73429072 7.91187216 18.44859328 5.3125 24.125 C2.2136568 29.43573834 -1.51020131 34.16187309 -7.5625 35.8125 C-8.408125 35.833125 -9.25375 35.85375 -10.125 35.875 C-9.125 32.875 -8.125 29.875 -7.125 26.875 C-8.775 26.545 -10.425 26.215 -12.125 25.875 C-12.125 26.535 -12.125 27.195 -12.125 27.875 C-12.785 27.875 -13.445 27.875 -14.125 27.875 C-13.125 24.875 -13.125 24.875 -11.125 22.875 C-11.125 22.215 -11.125 21.555 -11.125 20.875 C-10.135 20.875 -9.145 20.875 -8.125 20.875 C-8.14820312 20.06675781 -8.17140625 19.25851563 -8.1953125 18.42578125 C-8.22238281 16.82283203 -8.22238281 16.82283203 -8.25 15.1875 C-8.27320312 14.13175781 -8.29640625 13.07601562 -8.3203125 11.98828125 C-8.04847887 7.65525323 -6.92660154 4.89036195 -4.25 1.5 C-2.125 -0.125 -2.125 -0.125 0 0 Z " fill="#38AFF9" transform="translate(121.125,75.125)"/>
<path d="M0 0 C0.66 0.33 1.32 0.66 2 1 C1.67 1.99 1.34 2.98 1 4 C0.01 4 -0.98 4 -2 4 C-2.33 4.99 -2.66 5.98 -3 7 C-3.99 7.33 -4.98 7.66 -6 8 C-6.103125 8.639375 -6.20625 9.27875 -6.3125 9.9375 C-6.539375 10.618125 -6.76625 11.29875 -7 12 C-10.0625 13.25 -10.0625 13.25 -13 14 C-13 16.31 -13 18.62 -13 21 C-12.01 21.33 -11.02 21.66 -10 22 C-10 22.66 -10 23.32 -10 24 C-9.34 24 -8.68 24 -8 24 C-8.63079424 29.92946587 -10.94060413 32.13318016 -15.5625 35.875 C-17.36749049 37.25984316 -19.17821951 38.63731989 -21 40 C-21.33 40.33 -21.66 40.66 -22 41 C-27.28974456 41.95388836 -29.68991452 41.85249582 -34.265625 38.875 C-35.37870298 37.99677213 -36.47771787 37.10044825 -37.5625 36.1875 C-38.09915283 35.73656982 -38.63580566 35.28563965 -39.1887207 34.82104492 C-40.69140625 33.48046875 -40.69140625 33.48046875 -43 31 C-43 30.01 -43 29.02 -43 28 C-41.35 28.33 -39.7 28.66 -38 29 C-37.896875 29.639375 -37.79375 30.27875 -37.6875 30.9375 C-37.3471875 31.9584375 -37.3471875 31.9584375 -37 33 C-36.01 33.33 -35.02 33.66 -34 34 C-33.67 34.66 -33.34 35.32 -33 36 C-32.29875 35.95875 -31.5975 35.9175 -30.875 35.875 C-27.61628372 36.01668332 -25.0440053 36.86734686 -22 38 C-20.57741188 34.17679443 -19.75957724 31.08718695 -20 27 C-23.96 27.495 -23.96 27.495 -28 28 C-28.20625 26.906875 -28.4125 25.81375 -28.625 24.6875 C-30.32762941 20.12135748 -31.75715712 19.98601156 -36 18 C-36.875 15.3125 -36.875 15.3125 -37 13 C-37.99 12.67 -38.98 12.34 -40 12 C-39.67 11.01 -39.34 10.02 -39 9 C-38.46890625 9.54269531 -37.9378125 10.08539063 -37.390625 10.64453125 C-36.33101562 11.71767578 -36.33101562 11.71767578 -35.25 12.8125 C-34.55390625 13.52019531 -33.8578125 14.22789063 -33.140625 14.95703125 C-32.43421875 15.63121094 -31.7278125 16.30539063 -31 17 C-30.35546875 17.62261719 -29.7109375 18.24523437 -29.046875 18.88671875 C-28.03367187 19.43779297 -28.03367187 19.43779297 -27 20 C-23.40905379 18.88825309 -20.82716865 17.28853085 -17.96875 14.8828125 C-16.87626953 13.97208984 -16.87626953 13.97208984 -15.76171875 13.04296875 C-15.01535156 12.41003906 -14.26898438 11.77710937 -13.5 11.125 C-12.01059156 9.87739535 -10.52101257 8.62999426 -9.03125 7.3828125 C-8.33644531 6.79790039 -7.64164063 6.21298828 -6.92578125 5.61035156 C-4.64573821 3.70376385 -2.33250913 1.84194174 0 0 Z " fill="#6684F9" transform="translate(93,107)"/>
<path d="M0 0 C-0.49846289 3.68862535 -1.0241647 5.68546144 -4 8 C-4.66 8.268125 -5.32 8.53625 -6 8.8125 C-8.92097063 10.54682631 -9.67667249 12.95634674 -11 16 C-10.01 16.33 -9.02 16.66 -8 17 C-8 18.65 -8 20.3 -8 22 C-7.236875 21.484375 -6.47375 20.96875 -5.6875 20.4375 C-4.800625 19.963125 -3.91375 19.48875 -3 19 C-2.01 19.33 -1.02 19.66 0 20 C-2.28663127 22.00602639 -4.57885562 24.00491565 -6.875 26 C-7.52597656 26.57234375 -8.17695312 27.1446875 -8.84765625 27.734375 C-9.47285156 28.27578125 -10.09804687 28.8171875 -10.7421875 29.375 C-11.60626221 30.12910156 -11.60626221 30.12910156 -12.48779297 30.8984375 C-14 32 -14 32 -16 32 C-16 32.66 -16 33.32 -16 34 C-17.32 34.66 -18.64 35.32 -20 36 C-19.67 34.35 -19.34 32.7 -19 31 C-19.66 31 -20.32 31 -21 31 C-23.1875 28.8125 -23.1875 28.8125 -25 26 C-24.75 23.1875 -24.75 23.1875 -24 21 C-22.02 20.34 -20.04 19.68 -18 19 C-17.67 17.35 -17.34 15.7 -17 14 C-16.01 13.67 -15.02 13.34 -14 13 C-13.67 12.34 -13.34 11.68 -13 11 C-12.01 11 -11.02 11 -10 11 C-9.896875 10.236875 -9.79375 9.47375 -9.6875 8.6875 C-8.92991884 5.72604639 -8.32284152 4.89268569 -6 3 C-4.9790625 2.1646875 -4.9790625 2.1646875 -3.9375 1.3125 C-2 0 -2 0 0 0 Z " fill="#5B8FFB" transform="translate(104,100)"/>
<path d="M0 0 C0.66 0.66 1.32 1.32 2 2 C2.66 2.309375 3.32 2.61875 4 2.9375 C6 4 6 4 8 7 C9.485 7.495 9.485 7.495 11 8 C11.495 11.465 11.495 11.465 12 15 C11.54625 14.319375 11.0925 13.63875 10.625 12.9375 C7.01112437 8.89340108 2.91845549 5.34976657 -2 3 C-6.40107245 3.30616156 -9.44826804 4.36157054 -13 7 C-13.33 7.99 -13.66 8.98 -14 10 C-13.278125 10.0825 -12.55625 10.165 -11.8125 10.25 C-8.36505198 11.16931947 -6.54795948 12.52281717 -4 15 C-3.1875 17.25 -3.1875 17.25 -3 19 C-3.99 19.33 -4.98 19.66 -6 20 C-6 18.35 -6 16.7 -6 15 C-6.99 15 -7.98 15 -9 15 C-8.79375 15.886875 -8.5875 16.77375 -8.375 17.6875 C-7.96211069 21.33468887 -8.24465216 22.82365629 -10 26 C-12.125 28.3125 -12.125 28.3125 -14 30 C-14.66 29.67 -15.32 29.34 -16 29 C-15.67 28.34 -15.34 27.68 -15 27 C-15.94875 27.061875 -16.8975 27.12375 -17.875 27.1875 C-18.90625 27.125625 -19.9375 27.06375 -21 27 C-23.47666082 23.28500878 -23.54886514 21.39092112 -23 17 C-20.19104748 14.43889623 -18.47593344 14.02693963 -14.6875 13.8125 C-13.3571875 13.9053125 -13.3571875 13.9053125 -12 14 C-12 13.34 -12 12.68 -12 12 C-16.10223585 10.98459888 -16.10223585 10.98459888 -20 12 C-19.67 10.68 -19.34 9.36 -19 8 C-18.38125 7.9175 -17.7625 7.835 -17.125 7.75 C-14.81562433 7.18741541 -14.81562433 7.18741541 -13.75 4.9375 C-13.37875 3.9784375 -13.37875 3.9784375 -13 3 C-11.68 3 -10.36 3 -9 3 C-9 2.34 -9 1.68 -9 1 C-5.75778445 -0.08073852 -3.39597063 -0.21676408 0 0 Z " fill="#E1F4FE" transform="translate(114,66)"/>
<path d="M0 0 C0.103125 0.639375 0.20625 1.27875 0.3125 1.9375 C0.539375 2.618125 0.76625 3.29875 1 4 C1.99 4.33 2.98 4.66 4 5 C3.01 5.33 2.02 5.66 1 6 C0.67 6.66 0.34 7.32 0 8 C-0.33 8 -0.66 8 -1 8 C-1.2165625 9.918125 -1.2165625 9.918125 -1.4375 11.875 C-1.70642746 14.25692894 -1.92226346 15.84452691 -3 18 C-3 19.32 -3 20.64 -3 22 C-2.34 22 -1.68 22 -1 22 C-0.67 20.35 -0.34 18.7 0 17 C0.33 17 0.66 17 1 17 C1 20 1 23 1 26 C2.15574011 28.73183699 2.15574011 28.73183699 4 31 C5.32 31 6.64 31 8 31 C8 30.34 8 29.68 8 29 C8.99 29.33 9.98 29.66 11 30 C10.67 31.32 10.34 32.64 10 34 C13.465 34.495 13.465 34.495 17 35 C17 34.34 17 33.68 17 33 C18.29233607 31.62689293 19.62437146 30.28965176 21 29 C19.35 28.67 17.7 28.34 16 28 C14.23921148 24.20040372 13.8690607 22.47465496 15 18.375 C17.25655137 14.56706957 19.04030737 12.93944129 23 11 C25.46865248 11.20572104 26.79873832 11.89936916 29 13 C29 13.66 29 14.32 29 15 C28.36191406 15.13277344 27.72382812 15.26554687 27.06640625 15.40234375 C25.82697266 15.66724609 25.82697266 15.66724609 24.5625 15.9375 C23.73878906 16.11152344 22.91507813 16.28554687 22.06640625 16.46484375 C20.02338796 16.80752994 20.02338796 16.80752994 19 18 C18.86431681 21.66344611 18.83538574 24.50615721 20 28 C21.98 28 23.96 28 26 28 C23.93025099 32.82241014 20.58830973 35.56011842 16 38 C9.24638043 38.23288343 5.19433894 34.93918325 0.3125 30.625 C-4.51234066 25.14815384 -5.44000306 20.82805689 -5.2265625 13.6875 C-4.77756713 8.36148599 -3.61575204 4.10880914 0 0 Z " fill="#847DEB" transform="translate(73,65)"/>
<path d="M0 0 C0.99 0 1.98 0 3 0 C3.33 1.32 3.66 2.64 4 4 C4.66 4 5.32 4 6 4 C6.29231633 7.72703322 6.45357092 10.211181 4.5625 13.5 C-5.175 23 -5.175 23 -9 23 C-9.33 23.99 -9.66 24.98 -10 26 C-12.155294 27.8175454 -14.2998009 29.51610688 -16.5625 31.1875 C-17.17802734 31.65091797 -17.79355469 32.11433594 -18.42773438 32.59179688 C-19.94705565 33.73423225 -21.47291627 34.86796157 -23 36 C-23.99 35.01 -24.98 34.02 -26 33 C-23.55536759 29.33305139 -22.06774391 29.32824291 -18 28 C-17.01 27.01 -16.02 26.02 -15 25 C-19.29 23.68 -23.58 22.36 -28 21 C-27.67 20.34 -27.34 19.68 -27 19 C-25.4221875 19.5259375 -25.4221875 19.5259375 -23.8125 20.0625 C-20.02960315 20.99272054 -18.56487806 21.33682927 -15 20 C-13.15344279 18.75254802 -11.38973287 17.4492663 -9.6484375 16.05859375 C-8 15 -8 15 -5 15 C-4.34 13.68 -3.68 12.36 -3 11 C-2.34 11 -1.68 11 -1 11 C-0.67 7.37 -0.34 3.74 0 0 Z " fill="#F0F7FB" transform="translate(105,81)"/>
<path d="M0 0 C0.99 0.33 1.98 0.66 3 1 C3 1.66 3 2.32 3 3 C3.56203125 3.25523438 4.1240625 3.51046875 4.703125 3.7734375 C7.29386482 5.15692781 9.45107845 6.79938583 11.75 8.625 C12.54921875 9.25664063 13.3484375 9.88828125 14.171875 10.5390625 C14.77515625 11.02117188 15.3784375 11.50328125 16 12 C15.47671952 15.93332492 13.81069239 17.40549853 10.75 19.8125 C9.59757812 20.75029297 9.59757812 20.75029297 8.421875 21.70703125 C6 23 6 23 3.56640625 23.015625 C0.13827714 21.65898334 -2.20870644 19.46481364 -4.8125 16.9375 C-5.31458984 16.46505859 -5.81667969 15.99261719 -6.33398438 15.50585938 C-7.56422789 14.34591548 -8.78327065 13.17411185 -10 12 C-9.67 11.34 -9.34 10.68 -9 10 C-6 11.5 -6 11.5 -3 13 C-2.01 13.33 -1.02 13.66 0 14 C-0.020625 12.741875 -0.04125 11.48375 -0.0625 10.1875 C-0.10886083 7.35948913 0.08307039 5.75078884 1 3 C0.67 2.01 0.34 1.02 0 0 Z " fill="#836FF4" transform="translate(64,37)"/>
<path d="M0 0 C2.73637125 1.56803296 5.38324984 3.24034915 8 5 C7.38125 5.2475 6.7625 5.495 6.125 5.75 C3.47946068 7.3061996 2.99445752 8.10186665 2 11 C1.55073009 13.76217798 1.17430632 16.47282991 0.875 19.25 C0.78863281 19.99507812 0.70226562 20.74015625 0.61328125 21.5078125 C0.40213133 23.33777846 0.20015455 25.16879879 0 27 C-4.455 28.485 -4.455 28.485 -9 30 C-8.01 29.030625 -7.02 28.06125 -6 27.0625 C-2.91806049 23.45348295 -2.13949176 20.79299612 -2.4765625 16.08203125 C-3.34960238 12.6094174 -5.17514552 11.07155995 -8 9 C-10.66533035 7.680982 -10.66533035 7.680982 -13 7 C-12.9375 5.25 -12.9375 5.25 -12 3 C-4.91795085 -2.03915035 -4.91795085 -2.03915035 0 0 Z " fill="#44A8F5" transform="translate(113,69)"/>
<path d="M0 0 C1.70632228 0.93072125 3.36165371 1.95424705 5 3 C5.59204727 3.31925446 6.18409454 3.63850891 6.79408264 3.96743774 C9.07465973 5.46262321 10.45212559 6.73646134 12 9 C12.99435461 14.00393505 12.81591709 18.95185097 12.68359375 24.0234375 C12.67052516 25.49457436 12.66056694 26.96574185 12.65357971 28.43692017 C12.62695145 32.29450758 12.55828047 36.15022689 12.48065186 40.00708008 C12.40882576 43.94847341 12.3770273 47.890171 12.34179688 51.83203125 C12.26689905 59.55553585 12.14755537 67.27750541 12 75 C8.24492176 73.74830725 6.75941479 71.82358723 4 69 C1.14999875 66.415616 -1.28870986 64.23709671 -5 63 C-5 62.34 -5 61.68 -5 61 C-0.48184545 61.53154759 2.45285063 63.17840391 6 66 C6.875 68.25 6.875 68.25 7 70 C7.66 70 8.32 70 9 70 C9.33 49.87 9.66 29.74 10 9 C8.68 8.67 7.36 8.34 6 8 C6 7.34 6 6.68 6 6 C4.68 5.67 3.36 5.34 2 5 C2 4.01 2 3.02 2 2 C1.34 2 0.68 2 0 2 C0 1.34 0 0.68 0 0 Z " fill="#E2FCFE" transform="translate(133,46)"/>
<path d="M0 0 C5.18701457 0.31436452 8.5947359 3.30033267 12 7 C12 7.66 12 8.32 12 9 C12.825 9.020625 13.65 9.04125 14.5 9.0625 C19.32469882 10.35483004 22.92985285 13.04153616 26 17 C26.2265625 19.734375 26.2265625 19.734375 26 22 C25.67 20.68 25.34 19.36 25 18 C24.01 18 23.02 18 22 18 C21.67 17.01 21.34 16.02 21 15 C19.35 15 17.7 15 16 15 C16 14.34 16 13.68 16 13 C15.01 12.34 14.02 11.68 13 11 C11.35 12.98 9.7 14.96 8 17 C7.67 15.68 7.34 14.36 7 13 C5.68 13 4.36 13 3 13 C2.8046875 10.98177083 2.609375 8.96354167 2.4140625 6.9453125 C2.13625251 4.77331755 2.13625251 4.77331755 0 3 C0 2.01 0 1.02 0 0 Z M-1 17 C0.1446875 17.2475 0.1446875 17.2475 1.3125 17.5 C4.03596236 18.09145396 4.03596236 18.09145396 7 18 C7.99 18.66 8.98 19.32 10 20 C10.6875 23.625 10.6875 23.625 11 27 C6.53318434 24.5635551 2.65941512 21.52231888 -1 18 C-1 17.67 -1 17.34 -1 17 Z " fill="#21B8F9" transform="translate(134,28)"/>
<path d="M0 0 C2 2 2 2 2.24609566 3.79221535 C2.24333028 4.88454003 2.24333028 4.88454003 2.24050903 5.99893188 C2.24325836 6.83468246 2.24600769 7.67043304 2.24884033 8.5315094 C2.24164978 9.45004196 2.23445923 10.36857452 2.22705078 11.31494141 C2.22734283 12.28083694 2.22763489 13.24673248 2.22793579 14.24189758 C2.22653872 17.44520955 2.21095974 20.648291 2.1953125 23.8515625 C2.19158371 26.06830722 2.18873611 28.28505358 2.18673706 30.50180054 C2.17909004 36.34456916 2.15943237 42.18723882 2.1373291 48.02996826 C2.11689368 53.98871522 2.10774028 59.94747812 2.09765625 65.90625 C2.07618749 77.60421022 2.04203867 89.30209689 2 101 C0.38841927 101.03497031 -1.2233791 101.06001598 -2.83520508 101.08081055 C-3.73274002 101.095811 -4.63027496 101.11081146 -5.55500793 101.12626648 C-8.82552361 100.95736757 -10.29798388 100.01995775 -12.6875 97.8125 C-13.49316406 97.09707031 -14.29882812 96.38164062 -15.12890625 95.64453125 C-16.07636719 94.77183594 -17.02382812 93.89914063 -18 93 C-20.00749195 91.25330162 -22.02691051 89.52094691 -24.04614258 87.7878418 C-27.04535254 85.20848601 -30.02247596 82.60434103 -33 80 C-32.01 79.505 -32.01 79.505 -31 79 C-27.09936042 80.30021319 -25.50634914 82.86706357 -23 86 C-18.89154596 90.01331089 -15.35774677 92.88937249 -10 95 C-9.67 96.32 -9.34 97.64 -9 99 C-5.7 99 -2.4 99 1 99 C0.67 66.33 0.34 33.66 0 0 Z " fill="#43CEEF" transform="translate(160,47)"/>
<path d="M0 0 C0.66 0 1.32 0 2 0 C2 22.44 2 44.88 2 68 C-2 69 -2 69 -5 68 C-5 66.35 -5 64.7 -5 63 C-6.32 62.34 -7.64 61.68 -9 61 C-8.67 60.34 -8.34 59.68 -8 59 C-5.15603485 61.22905376 -2.56144795 63.43855205 0 66 C0 44.22 0 22.44 0 0 Z " fill="#2ABFE6" transform="translate(145,55)"/>
<path d="M0 0 C2.22025964 -0.10865502 4.4420706 -0.18588481 6.6640625 -0.25 C7.9010791 -0.29640625 9.1380957 -0.3428125 10.41259766 -0.390625 C16.22225343 0.24197669 19.35517038 3.68020193 23 8 C21.68 8.33 20.36 8.66 19 9 C19 8.34 19 7.68 19 7 C18.34 7 17.68 7 17 7 C16.67 6.34 16.34 5.68 16 5 C12.8227754 2.97415496 9.9676585 2.64054704 6.25 2.375 C4.77273437 2.26285156 4.77273437 2.26285156 3.265625 2.1484375 C2.51796875 2.09945313 1.7703125 2.05046875 1 2 C1.0844447 14.26567166 1.17934439 26.53121387 1.28752708 38.79670048 C1.33743555 44.4922906 1.3837662 50.18786266 1.421875 55.88354492 C1.45879645 61.38198093 1.50517526 66.88026385 1.55806351 72.37856865 C1.57657097 74.47444404 1.59169234 76.57035221 1.60334396 78.66627693 C1.62026875 81.60588321 1.64931909 84.54514166 1.68115234 87.48461914 C1.68331253 88.34777237 1.68547272 89.2109256 1.68769836 90.10023499 C1.75669701 95.10025575 2.39964537 99.25596883 4 104 C1.36735632 101.59628186 0.11583344 99.78826811 -0.12304783 96.10035419 C-0.12212604 95.38043387 -0.12120424 94.66051355 -0.12025452 93.91877747 C-0.12162918 93.09006638 -0.12300385 92.26135529 -0.12442017 91.40753174 C-0.12082489 90.50194519 -0.11722961 89.59635864 -0.11352539 88.66333008 C-0.11367142 87.70704208 -0.11381744 86.75075409 -0.1139679 85.76548767 C-0.11327044 82.6001459 -0.1054858 79.43486276 -0.09765625 76.26953125 C-0.09579148 74.07663505 -0.09436785 71.88373844 -0.09336853 69.69084167 C-0.08954802 63.91552584 -0.07972168 58.14023511 -0.06866455 52.3649292 C-0.05844044 46.47310729 -0.05386876 40.58128134 -0.04882812 34.68945312 C-0.03809902 23.12629105 -0.02102815 11.56314761 0 0 Z " fill="#865BDC" transform="translate(36,24)"/>
<path d="M0 0 C0.66 0.33 1.32 0.66 2 1 C1.67 1.99 1.34 2.98 1 4 C0.01 4 -0.98 4 -2 4 C-2.33 4.99 -2.66 5.98 -3 7 C-3.99 7.33 -4.98 7.66 -6 8 C-6.103125 8.639375 -6.20625 9.27875 -6.3125 9.9375 C-6.539375 10.618125 -6.76625 11.29875 -7 12 C-10.0625 13.25 -10.0625 13.25 -13 14 C-13.33 15.65 -13.66 17.3 -14 19 C-14.99 19 -15.98 19 -17 19 C-17.33 19.33 -17.66 19.66 -18 20 C-20.37325851 22.19746158 -21.68750059 22.96010646 -24.9375 23.375 C-28.38586966 22.95275065 -30.17968936 21.98183991 -33 20 C-33.99 19.34 -34.98 18.68 -36 18 C-36.6875 15.375 -36.6875 15.375 -37 13 C-37.99 12.67 -38.98 12.34 -40 12 C-39.67 11.01 -39.34 10.02 -39 9 C-38.46890625 9.54269531 -37.9378125 10.08539063 -37.390625 10.64453125 C-36.68421875 11.35996094 -35.9778125 12.07539062 -35.25 12.8125 C-34.20585938 13.87404297 -34.20585938 13.87404297 -33.140625 14.95703125 C-32.08101562 15.96830078 -32.08101562 15.96830078 -31 17 C-30.35546875 17.62261719 -29.7109375 18.24523437 -29.046875 18.88671875 C-28.03367187 19.43779297 -28.03367187 19.43779297 -27 20 C-23.40905379 18.88825309 -20.82716865 17.28853085 -17.96875 14.8828125 C-16.87626953 13.97208984 -16.87626953 13.97208984 -15.76171875 13.04296875 C-15.01535156 12.41003906 -14.26898438 11.77710937 -13.5 11.125 C-12.01059156 9.87739535 -10.52101257 8.62999426 -9.03125 7.3828125 C-8.33644531 6.79790039 -7.64164063 6.21298828 -6.92578125 5.61035156 C-4.64573821 3.70376385 -2.33250913 1.84194174 0 0 Z " fill="#6E85F7" transform="translate(93,107)"/>
<path d="M0 0 C1.65 0 3.3 0 5 0 C5.33 1.32 5.66 2.64 6 4 C4.35 4.33 2.7 4.66 1 5 C1.99 7.97 2.98 10.94 4 14 C3.01 14.66 2.02 15.32 1 16 C2.32 16.66 3.64 17.32 5 18 C3.02 18 1.04 18 -1 18 C-1.33 17.01 -1.66 16.02 -2 15 C-3.32488113 14.63451555 -4.66018514 14.3062434 -6 14 C-8.25 12.4375 -8.25 12.4375 -10 11 C-9.360625 10.401875 -8.72125 9.80375 -8.0625 9.1875 C-5.79689611 7.09189663 -5.79689611 7.09189663 -5 4 C-3.66666667 3.66666667 -2.33333333 3.33333333 -1 3 C-0.67 2.01 -0.34 1.02 0 0 Z " fill="#34A9FB" transform="translate(126,24)"/>
<path d="M0 0 C1.25924644 0.58465013 2.50822148 1.19161074 3.75 1.8125 C3.75 2.4725 3.75 3.1325 3.75 3.8125 C2.79287109 4.01166016 2.79287109 4.01166016 1.81640625 4.21484375 C0.57697266 4.47974609 0.57697266 4.47974609 -0.6875 4.75 C-1.92306641 5.01103516 -1.92306641 5.01103516 -3.18359375 5.27734375 C-5.22661204 5.62002994 -5.22661204 5.62002994 -6.25 6.8125 C-6.38568319 10.47594611 -6.41461426 13.31865721 -5.25 16.8125 C-3.27 16.8125 -1.29 16.8125 0.75 16.8125 C-1.31315118 21.61953752 -4.65689482 24.40422323 -9.25 26.8125 C-13.125 26.8125 -13.125 26.8125 -16.25 25.8125 C-16.91 25.1525 -17.57 24.4925 -18.25 23.8125 C-14.95 23.8125 -11.65 23.8125 -8.25 23.8125 C-8.25 23.1525 -8.25 22.4925 -8.25 21.8125 C-6.95766393 20.43939293 -5.62562854 19.10215176 -4.25 17.8125 C-5.9 17.4825 -7.55 17.1525 -9.25 16.8125 C-11.01078852 13.01290372 -11.3809393 11.28715496 -10.25 7.1875 C-7.8666218 3.16554929 -5.07126455 -0.42260538 0 0 Z " fill="#8098E7" transform="translate(98.25,76.1875)"/>
<path d="M0 0 C0.90492187 0.66708984 0.90492187 0.66708984 1.828125 1.34765625 C3.02695312 2.19650391 3.02695312 2.19650391 4.25 3.0625 C5.03890625 3.63097656 5.8278125 4.19945312 6.640625 4.78515625 C8.87004094 6.19310603 8.87004094 6.19310603 11.09375 5.84375 C13.14365549 4.93641478 14.57507115 3.92209603 16.25 2.4375 C17.1575 1.633125 18.065 0.82875 19 0 C19.66 0.33 20.32 0.66 21 1 C20.34 1.66 19.68 2.32 19 3 C21.33317216 3.77772405 23.61435923 4.42415568 26 5 C25.25234375 5.51949219 24.5046875 6.03898437 23.734375 6.57421875 C22.74953125 7.27160156 21.7646875 7.96898437 20.75 8.6875 C19.77546875 9.37199219 18.8009375 10.05648437 17.796875 10.76171875 C15.05359194 12.95711148 13.07498563 15.17900763 11 18 C10.34 16.02 9.68 14.04 9 12 C9.66 12 10.32 12 11 12 C11 11.01 11 10.02 11 9 C9.948125 8.7525 8.89625 8.505 7.8125 8.25 C4.1866459 7.23299214 1.80089228 5.54626571 -1 3 C-0.67 2.01 -0.34 1.02 0 0 Z " fill="#EEEDFD" transform="translate(58,53)"/>
<path d="M0 0 C0.7940625 0.01417969 1.588125 0.02835937 2.40625 0.04296875 C3.59734375 0.05263672 3.59734375 0.05263672 4.8125 0.0625 C6.90625 0.23046875 6.90625 0.23046875 8.90625 1.23046875 C9.22410906 4.72691838 9.30269605 6.62787075 7.34375 9.60546875 C4.03855302 11.8089334 1.79826406 11.66291476 -2.09375 11.23046875 C-4.09375 9.23046875 -4.09375 9.23046875 -4.34375 5.73046875 C-4.07983869 2.03571041 -3.90528199 0.42987246 0 0 Z " fill="#EBF6FD" transform="translate(95.09375,80.76953125)"/>
<path d="M0 0 C3.875 0.875 3.875 0.875 5 2 C5.09536242 5.16612663 5.12550636 8.31040628 5.11352539 11.47680664 C5.11367142 12.47181686 5.11381744 13.46682709 5.1139679 14.49198914 C5.11326831 17.79806662 5.10547379 21.10408854 5.09765625 24.41015625 C5.09579223 26.69559193 5.09436825 28.98102801 5.09336853 31.26646423 C5.08954207 37.29498387 5.0797107 43.32347959 5.06866455 49.35198975 C5.05845317 55.49832841 5.0538715 61.64467093 5.04882812 67.79101562 C5.03808854 79.86068762 5.0210106 91.93034182 5 104 C4.67 104 4.34 104 4 104 C3.99413376 102.7855722 3.98826752 101.57114441 3.98222351 100.31991577 C3.92499912 88.87249365 3.85223873 77.42526154 3.76428509 65.97803307 C3.71956651 60.09295395 3.68031346 54.20794431 3.65356445 48.32275391 C3.62754662 42.64272517 3.58715448 36.96296355 3.53681374 31.28310013 C3.52013483 29.11662749 3.50862694 26.95010863 3.50238609 24.78358078 C3.49275637 21.74785134 3.46470976 18.71280686 3.43237305 15.67724609 C3.43380814 14.78244537 3.43524323 13.88764465 3.4367218 12.96572876 C3.36024334 7.88571637 2.73500226 4.44732168 0 0 Z " fill="#D4FEFF" transform="translate(158,43)"/>
<path d="M0 0 C0.33 0 0.66 0 1 0 C1.01030746 1.20412033 1.02061493 2.40824066 1.03123474 3.64884949 C1.12896762 14.99349035 1.23170169 26.33807634 1.33933926 37.68262768 C1.39451652 43.51504327 1.44792827 49.34746391 1.49731445 55.17993164 C1.54503457 60.80798495 1.59738022 66.43597794 1.65294075 72.06395912 C1.67332963 74.21173921 1.6920484 76.35953582 1.70907402 78.5073452 C1.73319473 81.51431627 1.7632389 84.52117395 1.79467773 87.52807617 C1.8004332 88.41712143 1.80618866 89.30616669 1.81211853 90.22215271 C1.8602933 94.27269935 1.99101708 98.04828983 3 102 C2.01 102 1.02 102 0 102 C0 68.34 0 34.68 0 0 Z " fill="#E8D0FE" transform="translate(35,25)"/>
<path d="M0 0 C2.475 0.495 2.475 0.495 5 1 C5.103125 1.639375 5.20625 2.27875 5.3125 2.9375 C5.539375 3.618125 5.76625 4.29875 6 5 C6.99 5.33 7.98 5.66 9 6 C9.33 6.66 9.66 7.32 10 8 C11.051875 7.938125 11.051875 7.938125 12.125 7.875 C15.38371628 8.01668332 17.9559947 8.86734686 21 10 C21.309375 9.195625 21.61875 8.39125 21.9375 7.5625 C23 5 23 5 24 4 C25.99958364 3.95919217 28.00045254 3.95745644 30 4 C28.33333333 5.66666667 26.66666667 7.33333333 25 9 C24.4225 9.763125 23.845 10.52625 23.25 11.3125 C20.30573968 13.52069524 18.31570847 13.92112667 14.66015625 13.79296875 C8.88144055 12.07038536 4.05033288 7.35188051 0 3 C0 2.01 0 1.02 0 0 Z " fill="#7182E6" transform="translate(50,135)"/>
<path d="M0 0 C2.3826718 1.35018069 4.04645473 3.03803916 5.875 5.0625 C4.885 5.5575 4.885 5.5575 3.875 6.0625 C3.875 5.4025 3.875 4.7425 3.875 4.0625 C2.885 4.5575 2.885 4.5575 1.875 5.0625 C1.730625 5.7225 1.58625 6.3825 1.4375 7.0625 C1.251875 7.7225 1.06625 8.3825 0.875 9.0625 C-2.89124671 10.31791557 -4.49688934 9.43311958 -8.125 8.0625 C-8.455 9.0525 -8.785 10.0425 -9.125 11.0625 C-8.135 11.3925 -7.145 11.7225 -6.125 12.0625 C-5.4375 14.125 -5.4375 14.125 -5.125 16.0625 C-7.625 14.6875 -7.625 14.6875 -10.125 13.0625 C-10.125 12.4025 -10.125 11.7425 -10.125 11.0625 C-11.115 10.7325 -12.105 10.4025 -13.125 10.0625 C-11.47946591 8.36856785 -9.82080608 6.70517377 -8.125 5.0625 C-7.36896484 4.32966797 -7.36896484 4.32966797 -6.59765625 3.58203125 C-2.74323116 0.08068327 -2.74323116 0.08068327 0 0 Z " fill="#2DBEF3" transform="translate(130.125,108.9375)"/>
<path d="M0 0 C0.66 0 1.32 0 2 0 C2.75 1.625 2.75 1.625 3 4 C1.2330104 7.14131484 -0.60249539 9.61385267 -3.1875 12.125 C-5.1188084 14.12290524 -5.6127889 15.28952231 -6 18 C-6.99 17.67 -7.98 17.34 -9 17 C-9.8125 13.875 -9.8125 13.875 -10 10 C-7.27944235 5.75913073 -4.87442507 3.39269288 0 2 C0 1.34 0 0.68 0 0 Z " fill="#FAF7FA" transform="translate(94,69)"/>
<path d="M0 0 C2.3125 1.5625 2.3125 1.5625 4 3 C3.01 3.33 2.02 3.66 1 4 C0.34 4.66 -0.32 5.32 -1 6 C-1.99 5.67 -2.98 5.34 -4 5 C-3.67 7.31 -3.34 9.62 -3 12 C-3.9075 11.360625 -4.815 10.72125 -5.75 10.0625 C-8.39221381 8.38571047 -9.9898499 7.46310002 -13 7 C-12.9375 5.25 -12.9375 5.25 -12 3 C-4.95858539 -2.01023732 -4.95858539 -2.01023732 0 0 Z " fill="#57A7F8" transform="translate(113,69)"/>
<path d="M0 0 C0.33 0.66 0.66 1.32 1 2 C2.11375 2.185625 2.11375 2.185625 3.25 2.375 C6.72403498 3.1645534 8.46043468 4.53097816 11 7 C11.8125 9.25 11.8125 9.25 12 11 C11.01 11.33 10.02 11.66 9 12 C9 10.35 9 8.7 9 7 C8.01 7 7.02 7 6 7 C6.20625 7.886875 6.4125 8.77375 6.625 9.6875 C7.03788931 13.33468887 6.75534784 14.82365629 5 18 C2.875 20.3125 2.875 20.3125 1 22 C0.34 21.67 -0.32 21.34 -1 21 C-0.67 20.34 -0.34 19.68 0 19 C-1.98 19 -3.96 19 -6 19 C-6 18.67 -6 18.34 -6 18 C-3.03 17.34 -0.06 16.68 3 16 C3.66 13.36 4.32 10.72 5 8 C2.36 7.67 -0.28 7.34 -3 7 C-3 6.67 -3 6.34 -3 6 C-1.02 6 0.96 6 3 6 C3 5.34 3 4.68 3 4 C1.68 3.34 0.36 2.68 -1 2 C-0.67 1.34 -0.34 0.68 0 0 Z " fill="#D5E5F8" transform="translate(99,74)"/>
<path d="M0 0 C-0.33 1.32 -0.66 2.64 -1 4 C-2.32 4.33 -3.64 4.66 -5 5 C-5 6.32 -5 7.64 -5 9 C-6.21236328 9.58007812 -6.21236328 9.58007812 -7.44921875 10.171875 C-8.51785156 10.69265625 -9.58648437 11.2134375 -10.6875 11.75 C-11.74324219 12.26046875 -12.79898438 12.7709375 -13.88671875 13.296875 C-16.90181784 14.94628931 -19.34993521 16.82841913 -22 19 C-24.3125 19.75 -24.3125 19.75 -26 20 C-22.59683858 16.45348196 -19.0953737 13.45520084 -15.125 10.5625 C-11.59292592 7.96129273 -8.1574728 5.34759144 -4.875 2.4375 C-2 0 -2 0 0 0 Z " fill="#E0F4FE" transform="translate(122,49)"/>
<path d="M0 0 C7.63562683 0 14.08355641 6.71953253 19.3125 11.75 C21.2265625 14.109375 21.2265625 14.109375 22.3125 15.75 C16.49043824 15.25096614 14.01218481 11.72382752 10.375 7.5 C7.75750335 5.27909375 5.68100575 5.0562278 2.3125 4.75 C2.3125 3.76 2.3125 2.77 2.3125 1.75 C0.6625 1.75 -0.9875 1.75 -2.6875 1.75 C-3.0175 3.07 -3.3475 4.39 -3.6875 5.75 C-5.6675 6.08 -7.6475 6.41 -9.6875 6.75 C-3.6875 0.75 -3.6875 0.75 0 0 Z " fill="#5AB4ED" transform="translate(128.6875,22.25)"/>
<path d="M0 0 C0.43570313 0.37511719 0.87140625 0.75023438 1.3203125 1.13671875 C5.18607599 4.45859777 9.07657648 7.74642927 13 11 C18.08938811 9.40956621 21.87456643 6.2553049 26 3 C24.26142784 6.76690636 22.09741625 9.21232537 19 12 C18.34 12 17.68 12 17 12 C17 12.66 17 13.32 17 14 C12.69666114 14.36885762 10.53339666 13.41758719 7 11 C6.01 10.34 5.02 9.68 4 9 C3.3125 6.375 3.3125 6.375 3 4 C2.01 3.67 1.02 3.34 0 3 C0 2.01 0 1.02 0 0 Z " fill="#847AE7" transform="translate(53,116)"/>
<path d="M0 0 C0.33 0 0.66 0 1 0 C1 21.78 1 43.56 1 66 C0.01 65.67 -0.98 65.34 -2 65 C-2 64.34 -2 63.68 -2 63 C-1.34 63 -0.68 63 0 63 C0 42.21 0 21.42 0 0 Z " fill="#BDFEFF" transform="translate(144,55)"/>
<path d="M0 0 C0.66 0.33 1.32 0.66 2 1 C2 1.66 2 2.32 2 3 C1.36191406 3.13277344 0.72382812 3.26554687 0.06640625 3.40234375 C-1.17302734 3.66724609 -1.17302734 3.66724609 -2.4375 3.9375 C-3.67306641 4.19853516 -3.67306641 4.19853516 -4.93359375 4.46484375 C-6.97661204 4.80752994 -6.97661204 4.80752994 -8 6 C-8.36760731 8.32817964 -8.70241581 10.6618385 -9 13 C-10.32 12.67 -11.64 12.34 -13 12 C-12.2453443 7.05281263 -11.71213924 4.03567407 -7.625 0.9375 C-4.72966211 -1.05862502 -3.30477247 -1.18999009 0 0 Z " fill="#B1A8EE" transform="translate(100,77)"/>
<path d="M0 0 C5.12080925 1.28020231 6.86872223 2.85566178 10 7 C14.09805728 11.02008156 17.64697985 13.89123449 23 16 C23.33 17.32 23.66 18.64 24 20 C27.3 20 30.6 20 34 20 C34 20.33 34 20.66 34 21 C28.80120744 21.90501224 24.68381529 22.15158836 20.20703125 19.08984375 C18.36487718 17.36996831 16.55960889 15.60991361 14.7890625 13.81640625 C11.14156386 10.13314782 7.17831833 7.03379357 3.1171875 3.8125 C1 2 1 2 0 0 Z " fill="#3AC4E4" transform="translate(127,126)"/>
<path d="M0 0 C2.64 0 5.28 0 8 0 C8.33 1.65 8.66 3.3 9 5 C7.3125 6.5625 7.3125 6.5625 5 8 C2.25 7.6875 2.25 7.6875 0 7 C0 4.69 0 2.38 0 0 Z " fill="#F8EFFB" transform="translate(91,83)"/>
<path d="M0 0 C1.32 0.33 2.64 0.66 4 1 C3.7525 2.03125 3.505 3.0625 3.25 4.125 C2.94693476 8.82251115 4.10841007 10.40741858 7 14 C6.67 14.66 6.34 15.32 6 16 C-0.875 13.25 -0.875 13.25 -2 11 C-1.34 11 -0.68 11 0 11 C-0.185625 9.741875 -0.37125 8.48375 -0.5625 7.1875 C-1.00732761 4.17255732 -0.99843846 2.99531539 0 0 Z " fill="#7683F7" transform="translate(82,76)"/>
<path d="M0 0 C0.33 0 0.66 0 1 0 C1.02505615 1.04865234 1.0501123 2.09730469 1.07592773 3.17773438 C1.17068773 7.0990651 1.27073588 11.02024672 1.37231445 14.94140625 C1.41540567 16.63277681 1.45709676 18.32418368 1.49731445 20.015625 C1.55564829 22.45844427 1.61915449 24.90108505 1.68359375 27.34375 C1.70030624 28.08991577 1.71701874 28.83608154 1.73423767 29.6048584 C1.83566391 33.26695754 2.09046979 36.79250601 2.64477539 40.41601562 C2.76199951 41.59873047 2.87922363 42.78144531 3 44 C2.34 44.66 1.68 45.32 1 46 C0 45 0 45 -0.12025452 43.17137146 C-0.11803391 42.37417191 -0.11581329 41.57697235 -0.11352539 40.75561523 C-0.11344986 39.85475693 -0.11337433 38.95389862 -0.11329651 38.02574158 C-0.10813522 37.04658279 -0.10297394 36.06742401 -0.09765625 35.05859375 C-0.0962413 34.06118668 -0.09482635 33.0637796 -0.09336853 32.03614807 C-0.08775114 28.83656876 -0.07519571 25.63705831 -0.0625 22.4375 C-0.05748724 20.27408955 -0.05292395 18.11067801 -0.04882812 15.94726562 C-0.03777607 10.63148675 -0.02102104 5.31574829 0 0 Z " fill="#FAEBFE" transform="translate(53,71)"/>
<path d="M0 0 C-0.33 0.99 -0.66 1.98 -1 3 C-1.66 3 -2.32 3 -3 3 C-3 4.32 -3 5.64 -3 7 C-2.34 7.66 -1.68 8.32 -1 9 C-5.52941176 10.13235294 -5.52941176 10.13235294 -8 9.4375 C-10.79941154 8.82512873 -12.467161 9.80393714 -15 11 C-12.2118412 8.12735154 -9.36021599 5.35581408 -6.375 2.6875 C-5.80523437 2.17574219 -5.23546875 1.66398437 -4.6484375 1.13671875 C-3 0 -3 0 0 0 Z " fill="#47A0F1" transform="translate(121,29)"/>
<path d="M0 0 C1.9375 0.375 1.9375 0.375 4 1 C4.33 1.66 4.66 2.32 5 3 C4.67 3.66 4.34 4.32 4 5 C5.32 5 6.64 5 8 5 C8 6.32 8 7.64 8 9 C6.25 10.125 6.25 10.125 4 11 C1.75 10.125 1.75 10.125 0 9 C0.50603992 6.83125748 0.99983813 5.00032373 2 3 C1.01 3 0.02 3 -1 3 C-0.67 2.01 -0.34 1.02 0 0 Z " fill="#1AB4FC" transform="translate(133,36)"/>
<path d="M0 0 C2.32536063 3.48804095 2.33457898 4.90140754 2 9 C1.06751322 11.79746034 0.53905073 12.71223608 -2.078125 14.109375 C-2.71234375 14.40328125 -3.3465625 14.6971875 -4 15 C-3.9131724 12.87422093 -3.8050049 10.74930419 -3.6875 8.625 C-3.62949219 7.44164063 -3.57148437 6.25828125 -3.51171875 5.0390625 C-3.34285156 4.03617187 -3.17398438 3.03328125 -3 2 C-2.01 1.34 -1.02 0.68 0 0 Z " fill="#24B5FB" transform="translate(125,86)"/>
<path d="M0 0 C3.60725685 2.0366636 6.62325932 4.27919141 9.6875 7.0625 C10.45449219 7.75472656 11.22148437 8.44695312 12.01171875 9.16015625 C13.36622191 10.41353737 14.69507796 11.69507796 16 13 C11.25 12.125 11.25 12.125 9 11 C8.01 11.99 7.02 12.98 6 14 C6.33 11.69 6.66 9.38 7 7 C5.68 6.67 4.36 6.34 3 6 C3 5.34 3 4.68 3 4 C2.01 3.67 1.02 3.34 0 3 C0 2.01 0 1.02 0 0 Z " fill="#CAFAFE" transform="translate(136,135)"/>
<path d="M0 0 C11.9793722 -1.22690583 11.9793722 -1.22690583 16.93359375 1.78125 C19.10947089 3.75868715 21.10483637 5.75388014 23 8 C21.68 8.33 20.36 8.66 19 9 C19 8.34 19 7.68 19 7 C18.34 7 17.68 7 17 7 C16.67 6.34 16.34 5.68 16 5 C12.69540665 2.85355853 9.6297207 2.62802526 5.75 2.375 C4.67234375 2.30023437 3.5946875 2.22546875 2.484375 2.1484375 C1.66453125 2.09945313 0.8446875 2.05046875 0 2 C0 1.34 0 0.68 0 0 Z " fill="#9A76DD" transform="translate(36,24)"/>
<path d="M0 0 C2.475 0.495 2.475 0.495 5 1 C5.103125 1.639375 5.20625 2.27875 5.3125 2.9375 C5.539375 3.618125 5.76625 4.29875 6 5 C6.99 5.33 7.98 5.66 9 6 C11.1875 7.9375 11.1875 7.9375 13 10 C13 10.66 13 11.32 13 12 C17.455 11.505 17.455 11.505 22 11 C21.67 11.66 21.34 12.32 21 13 C15.74477679 13.87587053 13.28154298 13.83139527 8.73046875 10.87890625 C7.61853574 9.99952796 6.52082049 9.10189484 5.4375 8.1875 C4.6326416 7.51098389 4.6326416 7.51098389 3.81152344 6.82080078 C2.30859375 5.48046875 2.30859375 5.48046875 0 3 C0 2.01 0 1.02 0 0 Z " fill="#817AE4" transform="translate(50,135)"/>
<path d="M0 0 C0.66 0.66 1.32 1.32 2 2 C0.88625 1.979375 -0.2275 1.95875 -1.375 1.9375 C-4.83215921 1.73619282 -4.83215921 1.73619282 -7 3 C-6.34414811 6.60992379 -6.34414811 6.60992379 -5 10 C-5.5775 9.690625 -6.155 9.38125 -6.75 9.0625 C-8.84294184 8.07416636 -10.74535275 7.4831387 -13 7 C-12.9375 5.25 -12.9375 5.25 -12 3 C-4.98269896 -1.99307958 -4.98269896 -1.99307958 0 0 Z " fill="#7AADEC" transform="translate(113,69)"/>
<path d="M0 0 C0.99 0 1.98 0 3 0 C3 4.62 3 9.24 3 14 C-1.455 15.485 -1.455 15.485 -6 17 C-5.01 16.05125 -4.02 15.1025 -3 14.125 C0.4669313 10.16163018 0.53114213 7.05705641 0.2109375 1.94140625 C0.14132813 1.30074219 0.07171875 0.66007812 0 0 Z " fill="#62ABEE" transform="translate(110,82)"/>
<path d="M0 0 C3.125 0.375 3.125 0.375 6 1 C6.268125 1.969375 6.53625 2.93875 6.8125 3.9375 C7.204375 4.948125 7.59625 5.95875 8 7 C8.99 7.33 9.98 7.66 11 8 C10.67 8.66 10.34 9.32 10 10 C6.96147295 8.59023295 4.4060405 6.91129772 1.75 4.875 C1.04359375 4.33617187 0.3371875 3.79734375 -0.390625 3.2421875 C-0.92171875 2.83226562 -1.4528125 2.42234375 -2 2 C-1.34 1.34 -0.68 0.68 0 0 Z " fill="#EAEAFC" transform="translate(69,38)"/>
<path d="M0 0 C0.66 0.33 1.32 0.66 2 1 C1.071875 1.3403125 1.071875 1.3403125 0.125 1.6875 C-2.63791327 3.39400526 -2.83995819 5.02739286 -4 8 C-7.02054022 11.02054022 -9.82286176 11.5253252 -14 12 C-9.73412126 7.45890328 -4.96387672 3.75264754 0 0 Z " fill="#6E93E8" transform="translate(104,41)"/>
<path d="M0 0 C0.66 0 1.32 0 2 0 C2.13548815 2.73083902 2.23429855 5.45491807 2.3125 8.1875 C2.3753418 9.34088867 2.3753418 9.34088867 2.43945312 10.51757812 C2.53054935 14.76266209 2.41875586 16.4601581 -0.26953125 19.92578125 C-2.49109051 21.61340352 -4.42786242 22.9520921 -7 24 C-6.36771484 23.07767578 -6.36771484 23.07767578 -5.72265625 22.13671875 C-5.17480469 21.32847656 -4.62695312 20.52023438 -4.0625 19.6875 C-3.51722656 18.88699219 -2.97195312 18.08648437 -2.41015625 17.26171875 C0.02073132 13.36287137 0.11087841 10.31169215 0.0625 5.8125 C0.04896484 4.18248047 0.04896484 4.18248047 0.03515625 2.51953125 C0.02355469 1.68808594 0.01195313 0.85664062 0 0 Z " fill="#C5EFFC" transform="translate(127,83)"/>
<path d="M0 0 C0.66 0.33 1.32 0.66 2 1 C1.67 1.99 1.34 2.98 1 4 C0.34 4 -0.32 4 -1 4 C-1.33 4.66 -1.66 5.32 -2 6 C-2.66 5.67 -3.32 5.34 -4 5 C-4 5.66 -4 6.32 -4 7 C-5.79323253 6.71812064 -7.58457126 6.4241719 -9.375 6.125 C-10.37273437 5.96257812 -11.37046875 5.80015625 -12.3984375 5.6328125 C-15 5 -15 5 -17 3 C-14 2 -14 2 -11.625 3 C-8.50124348 4.19000248 -7.14250574 4.04750191 -4 3 C-1.73545927 1.53228729 -1.73545927 1.53228729 0 0 Z " fill="#E2EBFD" transform="translate(94,98)"/>
<path d="M0 0 C0.66 0 1.32 0 2 0 C2.31795637 4.05394366 2.46278608 6.2978418 0.1875 9.75 C-0.534375 10.4925 -1.25625 11.235 -2 12 C-2.804375 12.8971875 -2.804375 12.8971875 -3.625 13.8125 C-5 15 -5 15 -7 15 C-5.75023244 11.34683329 -5.32901247 10.21934164 -2 8 C-1.59270772 5.67843403 -1.25561323 3.3431213 -1 1 C-0.67 0.67 -0.34 0.34 0 0 Z " fill="#E5FAFE" transform="translate(109,85)"/>
<path d="M0 0 C2.97 1.98 2.97 1.98 6 4 C5.75 5.875 5.75 5.875 5 8 C2.9375 9.25 2.9375 9.25 1 10 C1 9.01 1 8.02 1 7 C0.34 7 -0.32 7 -1 7 C-1 5.68 -1 4.36 -1 3 C-1.33 2.34 -1.66 1.68 -2 1 C-1.34 0.67 -0.68 0.34 0 0 Z " fill="#8782EC" transform="translate(74,45)"/>
<path d="M0 0 C-0.36307379 2.68674602 -0.66904228 4.55872304 -2.3125 6.75 C-4.19904732 8.14744246 -5.70199304 8.6037919 -8 9 C-8.33 8.01 -8.66 7.02 -9 6 C-3.28571429 0 -3.28571429 0 0 0 Z " fill="#66A2F2" transform="translate(104,100)"/>
<path d="M0 0 C2.31 0.66 4.62 1.32 7 2 C7 2.99 7 3.98 7 5 C6.34 5 5.68 5 5 5 C5.33 6.65 5.66 8.3 6 10 C5.34 10 4.68 10 4 10 C3.71125 9.195625 3.4225 8.39125 3.125 7.5625 C2.26737432 4.8673532 2.26737432 4.8673532 0 4 C0 2.68 0 1.36 0 0 Z " fill="#26BCF9" transform="translate(121,116)"/>
<path d="M0 0 C0.66 0.33 1.32 0.66 2 1 C2.66 1.28875 3.32 1.5775 4 1.875 C6 3 6 3 8 6 C8.99 6.33 9.98 6.66 11 7 C11.33 9.31 11.66 11.62 12 14 C11.319375 12.9790625 11.319375 12.9790625 10.625 11.9375 C6.95635416 7.83211061 2.57081875 5.02685898 -2 2 C-1.34 1.34 -0.68 0.68 0 0 Z " fill="#CAF1FC" transform="translate(114,67)"/>
<path d="M0 0 C1.32 0 2.64 0 4 0 C4.33 0.66 4.66 1.32 5 2 C7.32156597 2.40729228 9.6568787 2.74438677 12 3 C12.33 3.99 12.66 4.98 13 6 C12.34 6 11.68 6 11 6 C11 5.34 11 4.68 11 4 C10.05125 4.495 9.1025 4.99 8.125 5.5 C5 7 5 7 3 7 C2.67 6.01 2.34 5.02 2 4 C1.34 3.67 0.68 3.34 0 3 C0 2.01 0 1.02 0 0 Z " fill="#38A4F8" transform="translate(120,39)"/>
<path d="M0 0 C4.51815455 0.53154759 7.45285063 2.17840391 11 5 C11.875 7.25 11.875 7.25 12 9 C12.66 9 13.32 9 14 9 C13.67 9.66 13.34 10.32 13 11 C11.96939453 10.15115234 11.96939453 10.15115234 10.91796875 9.28515625 C10.01691406 8.55167969 9.11585938 7.81820312 8.1875 7.0625 C7.29417969 6.33160156 6.40085938 5.60070312 5.48046875 4.84765625 C3.06637081 2.84817309 3.06637081 2.84817309 0 2 C0 1.34 0 0.68 0 0 Z " fill="#CDF7FD" transform="translate(128,107)"/>
<path d="M0 0 C0.66 0.33 1.32 0.66 2 1 C1.67 1.99 1.34 2.98 1 4 C0.01 4 -0.98 4 -2 4 C-2.33 4.99 -2.66 5.98 -3 7 C-3.99 7.33 -4.98 7.66 -6 8 C-7.20882096 10.00016466 -7.20882096 10.00016466 -8 12 C-8.99 11.01 -9.98 10.02 -11 9 C-7.37 6.03 -3.74 3.06 0 0 Z " fill="#7494ED" transform="translate(93,107)"/>
<path d="M0 0 C0.33 1.32 0.66 2.64 1 4 C-0.65 4.33 -2.3 4.66 -4 5 C-4 5.66 -4 6.32 -4 7 C-5.96147874 8.38938077 -7.96166576 9.7260411 -10 11 C-10.66 10.67 -11.32 10.34 -12 10 C-10.625 8.5 -10.625 8.5 -9 7 C-8.34 7 -7.68 7 -7 7 C-7 6.34 -7 5.68 -7 5 C-5.46875 3.7109375 -5.46875 3.7109375 -3.5 2.375 C-2.8503125 1.92898437 -2.200625 1.48296875 -1.53125 1.0234375 C-0.77328125 0.51683594 -0.77328125 0.51683594 0 0 Z " fill="#DCF2FE" transform="translate(95,127)"/>
<path d="M0 0 C0.33 0 0.66 0 1 0 C1.06058594 1.31355469 1.12117188 2.62710938 1.18359375 3.98046875 C1.26803256 5.71615541 1.35267888 7.45183198 1.4375 9.1875 C1.47681641 10.05181641 1.51613281 10.91613281 1.55664062 11.80664062 C1.76347016 15.95914122 2.00103531 19.94537862 3 24 C2.01 24 1.02 24 0 24 C0 16.08 0 8.16 0 0 Z " fill="#EEDAFE" transform="translate(35,103)"/>
<path d="M0 0 C1.45823212 -0.0270043 2.91660675 -0.04639787 4.375 -0.0625 C5.18710938 -0.07410156 5.99921875 -0.08570312 6.8359375 -0.09765625 C9 0 9 0 11 1 C11 1.99 11 2.98 11 4 C9.35 4 7.7 4 6 4 C6 3.34 6 2.68 6 2 C3.69 2 1.38 2 -1 2 C-0.67 1.34 -0.34 0.68 0 0 Z " fill="#EAE3FE" transform="translate(93,81)"/>
<path d="M0 0 C1.9375 0.6875 1.9375 0.6875 3.9375 1.6875 C3.9375 2.3475 3.9375 3.0075 3.9375 3.6875 C0.6375 4.0175 -2.6625 4.3475 -6.0625 4.6875 C-4.93885141 1.31655424 -3.84862368 -0.5831248 0 0 Z " fill="#9E98EB" transform="translate(98.0625,76.3125)"/>
<path d="M0 0 C4.06064833 1.6028875 6.97098565 2.83330318 10 6 C9.67 6.99 9.34 7.98 9 9 C5.18063472 7.44396229 2.73955562 5.04395069 0 2 C0 1.34 0 0.68 0 0 Z " fill="#886AE4" transform="translate(54,47)"/>
<path d="M0 0 C0 0.99 0 1.98 0 3 C-1.62935241 4.37868281 -3.29749607 5.71274093 -5 7 C-5.33 7.66 -5.66 8.32 -6 9 C-6.66 9 -7.32 9 -8 9 C-8 9.66 -8 10.32 -8 11 C-9.65 11 -11.3 11 -13 11 C-13 10.34 -13 9.68 -13 9 C-11.7315625 8.443125 -11.7315625 8.443125 -10.4375 7.875 C-6.45316122 5.7017243 -3.33363816 3.04761595 0 0 Z " fill="#7F89E1" transform="translate(78,119)"/>
<path d="M0 0 C3.22973344 1.47813887 5.88997098 3.31746497 8.6875 5.5 C9.47511719 6.1084375 10.26273438 6.716875 11.07421875 7.34375 C13 9 13 9 14 11 C9.12262664 10.58193943 7.1850091 8.5933436 4 5 C2.64444707 3.35135455 1.30368347 1.68996005 0 0 Z " fill="#39B1E0" transform="translate(137,27)"/>
<path d="M0 0 C0.99 0.33 1.98 0.66 3 1 C1.576875 1.8353125 1.576875 1.8353125 0.125 2.6875 C-3.08878787 5.06570302 -3.95565118 6.24034426 -5 10 C-5.33 9.34 -5.66 8.68 -6 8 C-8.02463255 7.34786708 -8.02463255 7.34786708 -10 7 C-8.4050992 5.80008401 -6.79873853 4.61538682 -5.1875 3.4375 C-3.84751953 2.44556641 -3.84751953 2.44556641 -2.48046875 1.43359375 C-1.66191406 0.96050781 -0.84335938 0.48742188 0 0 Z " fill="#8287E9" transform="translate(84,57)"/>
<path d="M0 0 C0.66 0.33 1.32 0.66 2 1 C1.67 2.32 1.34 3.64 1 5 C1.99 5.33 2.98 5.66 4 6 C4.6875 8.0625 4.6875 8.0625 5 10 C2.5 8.625 2.5 8.625 0 7 C0 6.34 0 5.68 0 5 C-0.99 4.67 -1.98 4.34 -3 4 C-2.01 2.68 -1.02 1.36 0 0 Z " fill="#4FBBE6" transform="translate(120,115)"/>
<path d="M0 0 C0.99 0.33 1.98 0.66 3 1 C2.2575 1.5775 1.515 2.155 0.75 2.75 C-1.66087643 4.72253526 -3.84042701 6.76044282 -6 9 C-6.33 7.68 -6.66 6.36 -7 5 C-5.90554162 4.13342884 -4.79902219 3.28207276 -3.6875 2.4375 C-3.07261719 1.96183594 -2.45773438 1.48617187 -1.82421875 0.99609375 C-1.22222656 0.66738281 -0.62023437 0.33867188 0 0 Z " fill="#D3EEFE" transform="translate(109,34)"/>
<path d="M0 0 C0 3.97378549 -1.34753657 5.12649795 -4 8 C-6.125 9.25 -6.125 9.25 -8 10 C-8.99 10.495 -8.99 10.495 -10 11 C-8.55218207 7.55571735 -6.72305391 5.63869038 -3.875 3.25 C-3.15054688 2.63640625 -2.42609375 2.0228125 -1.6796875 1.390625 C-0.84824219 0.70226562 -0.84824219 0.70226562 0 0 Z " fill="#DBE8FE" transform="translate(81,138)"/>
<path d="M0 0 C1.65 0 3.3 0 5 0 C2.42215154 2.64752004 0.08351902 4.94432065 -3 7 C-3.33 5.68 -3.66 4.36 -4 3 C-3.01 2.67 -2.02 2.34 -1 2 C-0.67 1.34 -0.34 0.68 0 0 Z " fill="#5DA6EE" transform="translate(113,51)"/>
<path d="M0 0 C3.4645173 1.21726284 5.43854318 2.43854318 8 5 C10.10332891 5.71447643 10.10332891 5.71447643 12 6 C11.67 7.32 11.34 8.64 11 10 C9.16375669 8.52444734 7.3310715 7.04446569 5.5 5.5625 C4.4790625 4.73878906 3.458125 3.91507813 2.40625 3.06640625 C1.6121875 2.38449219 0.818125 1.70257813 0 1 C0 0.67 0 0.34 0 0 Z " fill="#48B5E5" transform="translate(133,45)"/>
<path d="M0 0 C1.77503906 0.03480469 1.77503906 0.03480469 3.5859375 0.0703125 C5.36871094 0.09738281 5.36871094 0.09738281 7.1875 0.125 C8.10273438 0.14820312 9.01796875 0.17140625 9.9609375 0.1953125 C9.9609375 0.8553125 9.9609375 1.5153125 9.9609375 2.1953125 C9.20167969 2.16050781 8.44242188 2.12570313 7.66015625 2.08984375 C6.66628906 2.06277344 5.67242187 2.03570313 4.6484375 2.0078125 C3.66230469 1.97300781 2.67617187 1.93820313 1.66015625 1.90234375 C-1.44702934 2.23959255 -2.0736145 2.8912027 -4.0390625 5.1953125 C-4.6990625 5.1953125 -5.3590625 5.1953125 -6.0390625 5.1953125 C-4.73204277 1.27425331 -4.2001475 0.26993236 0 0 Z " fill="#DEFAFE" transform="translate(126.0390625,21.8046875)"/>
<path d="M0 0 C0.33 0.66 0.66 1.32 1 2 C3.52733235 2.65555119 3.52733235 2.65555119 6 3 C5.01 3.495 5.01 3.495 4 4 C4.33 5.32 4.66 6.64 5 8 C2.36 7.67 -0.28 7.34 -3 7 C-3 6.67 -3 6.34 -3 6 C-1.02 6 0.96 6 3 6 C3 5.34 3 4.68 3 4 C1.68 3.34 0.36 2.68 -1 2 C-0.67 1.34 -0.34 0.68 0 0 Z " fill="#B8C2F5" transform="translate(99,74)"/>
<path d="M0 0 C0.66 0 1.32 0 2 0 C2 0.99 2 1.98 2 3 C1.01 3.33 0.02 3.66 -1 4 C-2.68538601 5.99665314 -2.68538601 5.99665314 -4 8 C-5.32 7.67 -6.64 7.34 -8 7 C-2.25 2 -2.25 2 0 2 C0 1.34 0 0.68 0 0 Z " fill="#D6E8FD" transform="translate(94,69)"/>
<path d="M0 0 C0.99 0.33 1.98 0.66 3 1 C-1.625 5.875 -1.625 5.875 -5 7 C-4.6189482 4.23737447 -4.16402868 3.15856106 -2.125 1.1875 C-1.42375 0.795625 -0.7225 0.40375 0 0 Z " fill="#E2EFFE" transform="translate(91,48)"/>
<path d="M0 0 C2.64 0 5.28 0 8 0 C8 1.32 8 2.64 8 4 C7.01 4.33 6.02 4.66 5 5 C3.35 3.35 1.7 1.7 0 0 Z " fill="#E6F2FE" transform="translate(144,31)"/>
<path d="M0 0 C0.66 0.33 1.32 0.66 2 1 C0.71034824 2.37562854 -0.62689293 3.70766393 -2 5 C-2.66 5 -3.32 5 -4 5 C-4 5.66 -4 6.32 -4 7 C-5.98 7.99 -5.98 7.99 -8 9 C-7.67 7.35 -7.34 5.7 -7 4 C-5.68 4 -4.36 4 -3 4 C-3 3.34 -3 2.68 -3 2 C-2.01 1.34 -1.02 0.68 0 0 Z " fill="#6B90DE" transform="translate(92,127)"/>
<path d="M0 0 C2 0 2 0 4.4375 2.3125 C5.283125 3.199375 6.12875 4.08625 7 5 C7.598125 5.598125 8.19625 6.19625 8.8125 6.8125 C9.204375 7.204375 9.59625 7.59625 10 8 C3.51510574 6.53172205 3.51510574 6.53172205 1.0625 4 C0 2 0 2 0 0 Z " fill="#CCF8FE" transform="translate(118,120)"/>
<path d="M0 0 C0.33 0.99 0.66 1.98 1 3 C-1.04074305 6.57130033 -2.55753136 8.7050209 -6 11 C-5.1875 8.0625 -5.1875 8.0625 -4 5 C-3.01 4.67 -2.02 4.34 -1 4 C-0.26676204 1.98491642 -0.26676204 1.98491642 0 0 Z " fill="#3AADE6" transform="translate(126,95)"/>
<path d="M0 0 C0.66 0.33 1.32 0.66 2 1 C1.67 1.99 1.34 2.98 1 4 C0.01 4 -0.98 4 -2 4 C-2 4.66 -2 5.32 -2 6 C-3.32 5.67 -4.64 5.34 -6 5 C-3.375 1.125 -3.375 1.125 0 0 Z " fill="#34A3FE" transform="translate(122,42)"/>
<path d="M0 0 C2.31 0.66 4.62 1.32 7 2 C6.67 2.66 6.34 3.32 6 4 C5.01 4 4.02 4 3 4 C3 4.66 3 5.32 3 6 C2.34 6 1.68 6 1 6 C0.67 4.02 0.34 2.04 0 0 Z " fill="#6D78FC" transform="translate(64,129)"/>
<path d="M0 0 C0.66 0.33 1.32 0.66 2 1 C0.9375 2.5625 0.9375 2.5625 -1 4 C-7.33333333 3.66666667 -7.33333333 3.66666667 -10 1 C-7.98177083 1.03255208 -5.96354167 1.06510417 -3.9453125 1.09765625 C-1.91814596 1.12649242 -1.91814596 1.12649242 0 0 Z " fill="#7C8EE4" transform="translate(90,99)"/>
<path d="M0 0 C0.99 0.33 1.98 0.66 3 1 C2.79375 2.0725 2.5875 3.145 2.375 4.25 C2.0123809 7.87619096 2.01637931 9.08291076 4 12 C2.68 12 1.36 12 0 12 C0 8.04 0 4.08 0 0 Z " fill="#878FEB" transform="translate(83,76)"/>
<path d="M0 0 C3.3 0 6.6 0 10 0 C8.515 1.98 8.515 1.98 7 4 C4.625 3.6875 4.625 3.6875 2 3 C1.34 2.01 0.68 1.02 0 0 Z " fill="#897EE4" transform="translate(63,56)"/>
<path d="M0 0 C1.31611677 0.95336021 2.62778961 1.91285774 3.9375 2.875 C4.66839844 3.40867187 5.39929687 3.94234375 6.15234375 4.4921875 C8 6 8 6 9 8 C7.68 8 6.36 8 5 8 C5 7.34 5 6.68 5 6 C4.34 6 3.68 6 3 6 C2.67 5.34 2.34 4.68 2 4 C-0.01669827 2.86649466 -0.01669827 2.86649466 -2 2 C-1.34 1.34 -0.68 0.68 0 0 Z " fill="#8C68E0" transform="translate(50,25)"/>
<path d="M0 0 C3.3 0 6.6 0 10 0 C10 0.99 10 1.98 10 3 C6.7 2.67 3.4 2.34 0 2 C0 1.34 0 0.68 0 0 Z " fill="#D3FEFF" transform="translate(152,148)"/>
<path d="M0 0 C4.455 1.98 4.455 1.98 9 4 C7.68 4.33 6.36 4.66 5 5 C4.01 4.34 3.02 3.68 2 3 C1.01 3.99 0.02 4.98 -1 6 C-0.67 4.02 -0.34 2.04 0 0 Z " fill="#E1FCFE" transform="translate(143,143)"/>
<path d="M0 0 C0.66 0.33 1.32 0.66 2 1 C0.9375 3.375 0.9375 3.375 -1 6 C-4.6875 7.3125 -4.6875 7.3125 -8 8 C-5.33333333 5.33333333 -2.66666667 2.66666667 0 0 Z " fill="#D2EFFE" transform="translate(104,119)"/>
<path d="M0 0 C3.72114571 2.31537955 6.61229661 4.28579473 9 8 C7.35 8.33 5.7 8.66 4 9 C4 7.35 4 5.7 4 4 C2.68 3.34 1.36 2.68 0 2 C0 1.34 0 0.68 0 0 Z " fill="#31C4EE" transform="translate(136,114)"/>
<path d="M0 0 C0.99 0 1.98 0 3 0 C2.67 2.97 2.34 5.94 2 9 C1.34 9 0.68 9 0 9 C0 6.03 0 3.06 0 0 Z " fill="#7F6EEF" transform="translate(68,78)"/>
<path d="M0 0 C0.66 0 1.32 0 2 0 C2 1.65 2 3.3 2 5 C1.34 5 0.68 5 0 5 C0 5.66 0 6.32 0 7 C-0.99 7 -1.98 7 -3 7 C-2.38722388 4.03824877 -1.74627478 2.61941217 0 0 Z " fill="#3FADFE" transform="translate(114,72)"/>
<path d="M0 0 C0.33 0.99 0.66 1.98 1 3 C-0.21484375 4.82421875 -0.21484375 4.82421875 -1.9375 6.6875 C-2.50339844 7.31011719 -3.06929688 7.93273438 -3.65234375 8.57421875 C-4.09707031 9.04472656 -4.54179688 9.51523437 -5 10 C-5.33 9.34 -5.66 8.68 -6 8 C-4.74516551 4.57772411 -2.6348519 2.45919511 0 0 Z " fill="#5390FA" transform="translate(106,40)"/>
<path d="M0 0 C1.32 0 2.64 0 4 0 C4 1.32 4 2.64 4 4 C2.02 4.99 2.02 4.99 0 6 C-0.66 5.34 -1.32 4.68 -2 4 C-1.34 4 -0.68 4 0 4 C0 2.68 0 1.36 0 0 Z " fill="#29B1FE" transform="translate(137,41)"/>
<path d="M0 0 C0.66 0 1.32 0 2 0 C2.33 1.32 2.66 2.64 3 4 C6.3 4 9.6 4 13 4 C13 4.33 13 4.66 13 5 C11.20866022 5.05391993 9.41686101 5.09275571 7.625 5.125 C6.62726563 5.14820313 5.62953125 5.17140625 4.6015625 5.1953125 C2 5 2 5 0 3 C0 2.01 0 1.02 0 0 Z " fill="#1FC9E4" transform="translate(148,142)"/>
<path d="M0 0 C0.99 0.33 1.98 0.66 3 1 C2.195625 1.61875 1.39125 2.2375 0.5625 2.875 C-2.03874519 4.74164041 -2.03874519 4.74164041 -3 7 C-3.66 7 -4.32 7 -5 7 C-3.75023244 3.34683329 -3.32901247 2.21934164 0 0 Z " fill="#DAF4FE" transform="translate(107,93)"/>
<path d="M0 0 C2.86095641 1.2824977 5.11365918 2.45343989 7 5 C7.1875 7.6875 7.1875 7.6875 7 10 C6.67 8.68 6.34 7.36 6 6 C5.01 6 4.02 6 3 6 C2.67 5.01 2.34 4.02 2 3 C1.34 2.67 0.68 2.34 0 2 C0 1.34 0 0.68 0 0 Z " fill="#27B8E6" transform="translate(153,40)"/>
<path d="M0 0 C0.33 0.99 0.66 1.98 1 3 C-1.97 5.475 -1.97 5.475 -5 8 C-5 5 -5 5 -2.5 2.3125 C-1.675 1.549375 -0.85 0.78625 0 0 Z " fill="#E8F7FE" transform="translate(101,40)"/>
<path d="M0 0 C3.78383679 0.92493788 5.56693694 1.39371171 7.875 4.625 C8.431875 5.800625 8.431875 5.800625 9 7 C4.58110387 5.64978174 2.65654657 3.73884332 0 0 Z " fill="#37BADF" transform="translate(127,126)"/>
<path d="M0 0 C1.32 0.33 2.64 0.66 4 1 C2.625 2.5 2.625 2.5 1 4 C0.34 4 -0.32 4 -1 4 C-1.33 4.66 -1.66 5.32 -2 6 C-2.33 5.34 -2.66 4.68 -3 4 C-2.01 2.68 -1.02 1.36 0 0 Z " fill="#6580E9" transform="translate(81,117)"/>
<path d="M0 0 C0.33 0 0.66 0 1 0 C1.66 3.3 2.32 6.6 3 10 C2.01 9.67 1.02 9.34 0 9 C-1.125 2.25 -1.125 2.25 0 0 Z " fill="#EDF3FE" transform="translate(85,77)"/>
<path d="M0 0 C1.32 0.33 2.64 0.66 4 1 C3.01 1.33 2.02 1.66 1 2 C1 2.66 1 3.32 1 4 C-0.65 4.66 -2.3 5.32 -4 6 C-4 5.34 -4 4.68 -4 4 C-3.34 4 -2.68 4 -2 4 C-1.34 2.68 -0.68 1.36 0 0 Z " fill="#678CE2" transform="translate(93,67)"/>
<path d="M0 0 C-1.11666174 3.34998521 -1.74694925 3.79340222 -4.5625 5.6875 C-5.20316406 6.12449219 -5.84382813 6.56148437 -6.50390625 7.01171875 C-6.99761719 7.33785156 -7.49132812 7.66398437 -8 8 C-8.66 7.67 -9.32 7.34 -10 7 C-8.71372289 5.82739389 -7.42080217 4.6620717 -6.125 3.5 C-5.04605469 2.52546875 -5.04605469 2.52546875 -3.9453125 1.53125 C-2 0 -2 0 0 0 Z " fill="#68A3E5" transform="translate(116,32)"/>
<path d="M0 0 C1.98 0.66 3.96 1.32 6 2 C6 2.99 6 3.98 6 5 C6.66 5 7.32 5 8 5 C7.67 5.66 7.34 6.32 7 7 C5.83040013 6.02433888 4.66438823 5.044375 3.5 4.0625 C2.8503125 3.51722656 2.200625 2.97195312 1.53125 2.41015625 C1.0259375 1.94480469 0.520625 1.47945312 0 1 C0 0.67 0 0.34 0 0 Z " fill="#C5F3FD" transform="translate(136,24)"/>
<path d="M0 0 C0 0.66 0 1.32 0 2 C-1.98 2 -3.96 2 -6 2 C-6 1.34 -6 0.68 -6 0 C-6.66 -0.33 -7.32 -0.66 -8 -1 C-4.37673261 -2.2077558 -3.35853631 -1.54311128 0 0 Z " fill="#767CF5" transform="translate(69,145)"/>
<path d="M0 0 C-2.97 2.475 -2.97 2.475 -6 5 C-6.66 4.67 -7.32 4.34 -8 4 C-8 3.34 -8 2.68 -8 2 C-3.61016949 -1.20338983 -3.61016949 -1.20338983 0 0 Z " fill="#6198E0" transform="translate(104,120)"/>
<path d="M0 0 C0.33 0 0.66 0 1 0 C1 4.29 1 8.58 1 13 C0.01 12.67 -0.98 12.34 -2 12 C-2 11.34 -2 10.68 -2 10 C-1.34 10 -0.68 10 0 10 C0 6.7 0 3.4 0 0 Z " fill="#A9FAFF" transform="translate(144,108)"/>
<path d="M0 0 C1.32 0 2.64 0 4 0 C3.67 1.65 3.34 3.3 3 5 C1.68 4.34 0.36 3.68 -1 3 C-0.67 2.01 -0.34 1.02 0 0 Z " fill="#20AEFC" transform="translate(119,77)"/>
<path d="M0 0 C0.33 1.32 0.66 2.64 1 4 C-0.8125 4.6875 -0.8125 4.6875 -3 5 C-4.75 3.5625 -4.75 3.5625 -6 2 C-4.02 1.34 -2.04 0.68 0 0 Z " fill="#F1EAF6" transform="translate(60,26)"/>
<path d="M0 0 C2.375 -0.1875 2.375 -0.1875 5 0 C5.66 0.99 6.32 1.98 7 3 C4.69 3 2.38 3 0 3 C0 2.01 0 1.02 0 0 Z " fill="#46B4EB" transform="translate(131,24)"/>
<path d="M0 0 C2.97 0.33 5.94 0.66 9 1 C9 1.33 9 1.66 9 2 C2.375 4.125 2.375 4.125 -1 3 C-0.67 2.01 -0.34 1.02 0 0 Z " fill="#EDEFFD" transform="translate(61,147)"/>
<path d="M0 0 C0.99 0.33 1.98 0.66 3 1 C2.34 2.32 1.68 3.64 1 5 C0.01 5 -0.98 5 -2 5 C-2 4.01 -2 3.02 -2 2 C-1.34 2 -0.68 2 0 2 C0 1.34 0 0.68 0 0 Z " fill="#F8FDEF" transform="translate(85,138)"/>
<path d="M0 0 C1.65 0 3.3 0 5 0 C5 1.32 5 2.64 5 4 C3.0625 3.6875 3.0625 3.6875 1 3 C0.67 2.01 0.34 1.02 0 0 Z " fill="#4B92EF" transform="translate(104,55)"/>
<path d="M0 0 C2.31 0 4.62 0 7 0 C7.33 0.99 7.66 1.98 8 3 C7.34 3 6.68 3 6 3 C6 2.34 6 1.68 6 1 C2.535 2.485 2.535 2.485 -1 4 C-0.67 2.68 -0.34 1.36 0 0 Z " fill="#51AEE4" transform="translate(125,42)"/>
<path d="M0 0 C2.475 0.495 2.475 0.495 5 1 C4.67 1.99 4.34 2.98 4 4 C2.68 3.67 1.36 3.34 0 3 C0 2.01 0 1.02 0 0 Z " fill="#19B4FE" transform="translate(134,28)"/>
</svg>
